%TF.GenerationSoftware,KiCad,Pcbnew,8.0.2*%
%TF.CreationDate,2024-05-20T13:08:33-07:00*%
%TF.ProjectId,USB_8769M,5553425f-3837-4363-994d-2e6b69636164,rev?*%
%TF.SameCoordinates,Original*%
%TF.FileFunction,Copper,L1,Top*%
%TF.FilePolarity,Positive*%
%FSLAX46Y46*%
G04 Gerber Fmt 4.6, Leading zero omitted, Abs format (unit mm)*
G04 Created by KiCad (PCBNEW 8.0.2) date 2024-05-20 13:08:33*
%MOMM*%
%LPD*%
G01*
G04 APERTURE LIST*
G04 Aperture macros list*
%AMRoundRect*
0 Rectangle with rounded corners*
0 $1 Rounding radius*
0 $2 $3 $4 $5 $6 $7 $8 $9 X,Y pos of 4 corners*
0 Add a 4 corners polygon primitive as box body*
4,1,4,$2,$3,$4,$5,$6,$7,$8,$9,$2,$3,0*
0 Add four circle primitives for the rounded corners*
1,1,$1+$1,$2,$3*
1,1,$1+$1,$4,$5*
1,1,$1+$1,$6,$7*
1,1,$1+$1,$8,$9*
0 Add four rect primitives between the rounded corners*
20,1,$1+$1,$2,$3,$4,$5,0*
20,1,$1+$1,$4,$5,$6,$7,0*
20,1,$1+$1,$6,$7,$8,$9,0*
20,1,$1+$1,$8,$9,$2,$3,0*%
G04 Aperture macros list end*
%TA.AperFunction,SMDPad,CuDef*%
%ADD10R,2.100000X1.800000*%
%TD*%
%TA.AperFunction,SMDPad,CuDef*%
%ADD11RoundRect,0.250000X1.000000X0.650000X-1.000000X0.650000X-1.000000X-0.650000X1.000000X-0.650000X0*%
%TD*%
%TA.AperFunction,SMDPad,CuDef*%
%ADD12RoundRect,0.160000X-0.197500X-0.160000X0.197500X-0.160000X0.197500X0.160000X-0.197500X0.160000X0*%
%TD*%
%TA.AperFunction,SMDPad,CuDef*%
%ADD13RoundRect,0.155000X0.212500X0.155000X-0.212500X0.155000X-0.212500X-0.155000X0.212500X-0.155000X0*%
%TD*%
%TA.AperFunction,SMDPad,CuDef*%
%ADD14RoundRect,0.160000X0.197500X0.160000X-0.197500X0.160000X-0.197500X-0.160000X0.197500X-0.160000X0*%
%TD*%
%TA.AperFunction,SMDPad,CuDef*%
%ADD15RoundRect,0.155000X-0.155000X0.212500X-0.155000X-0.212500X0.155000X-0.212500X0.155000X0.212500X0*%
%TD*%
%TA.AperFunction,SMDPad,CuDef*%
%ADD16RoundRect,0.237500X-0.300000X-0.237500X0.300000X-0.237500X0.300000X0.237500X-0.300000X0.237500X0*%
%TD*%
%TA.AperFunction,SMDPad,CuDef*%
%ADD17RoundRect,0.160000X-0.160000X0.197500X-0.160000X-0.197500X0.160000X-0.197500X0.160000X0.197500X0*%
%TD*%
%TA.AperFunction,ComponentPad*%
%ADD18C,3.600000*%
%TD*%
%TA.AperFunction,ConnectorPad*%
%ADD19C,5.600000*%
%TD*%
%TA.AperFunction,SMDPad,CuDef*%
%ADD20RoundRect,0.155000X0.155000X-0.212500X0.155000X0.212500X-0.155000X0.212500X-0.155000X-0.212500X0*%
%TD*%
%TA.AperFunction,ConnectorPad*%
%ADD21C,0.787400*%
%TD*%
%TA.AperFunction,ComponentPad*%
%ADD22RoundRect,0.250000X-0.600000X-0.600000X0.600000X-0.600000X0.600000X0.600000X-0.600000X0.600000X0*%
%TD*%
%TA.AperFunction,ComponentPad*%
%ADD23C,1.700000*%
%TD*%
%TA.AperFunction,SMDPad,CuDef*%
%ADD24RoundRect,0.150000X-0.512500X-0.150000X0.512500X-0.150000X0.512500X0.150000X-0.512500X0.150000X0*%
%TD*%
%TA.AperFunction,SMDPad,CuDef*%
%ADD25RoundRect,0.150000X0.512500X0.150000X-0.512500X0.150000X-0.512500X-0.150000X0.512500X-0.150000X0*%
%TD*%
%TA.AperFunction,SMDPad,CuDef*%
%ADD26RoundRect,0.237500X0.287500X0.237500X-0.287500X0.237500X-0.287500X-0.237500X0.287500X-0.237500X0*%
%TD*%
%TA.AperFunction,SMDPad,CuDef*%
%ADD27C,1.000000*%
%TD*%
%TA.AperFunction,SMDPad,CuDef*%
%ADD28RoundRect,0.160000X0.160000X-0.197500X0.160000X0.197500X-0.160000X0.197500X-0.160000X-0.197500X0*%
%TD*%
%TA.AperFunction,SMDPad,CuDef*%
%ADD29RoundRect,0.237500X-0.237500X0.287500X-0.237500X-0.287500X0.237500X-0.287500X0.237500X0.287500X0*%
%TD*%
%TA.AperFunction,SMDPad,CuDef*%
%ADD30RoundRect,0.155000X-0.212500X-0.155000X0.212500X-0.155000X0.212500X0.155000X-0.212500X0.155000X0*%
%TD*%
%TA.AperFunction,SMDPad,CuDef*%
%ADD31R,1.100000X3.700000*%
%TD*%
%TA.AperFunction,SMDPad,CuDef*%
%ADD32RoundRect,0.250000X-0.412500X-0.650000X0.412500X-0.650000X0.412500X0.650000X-0.412500X0.650000X0*%
%TD*%
%TA.AperFunction,SMDPad,CuDef*%
%ADD33RoundRect,0.175000X0.175000X0.325000X-0.175000X0.325000X-0.175000X-0.325000X0.175000X-0.325000X0*%
%TD*%
%TA.AperFunction,SMDPad,CuDef*%
%ADD34RoundRect,0.150000X0.200000X0.150000X-0.200000X0.150000X-0.200000X-0.150000X0.200000X-0.150000X0*%
%TD*%
%TA.AperFunction,SMDPad,CuDef*%
%ADD35RoundRect,0.100000X0.100000X0.575000X-0.100000X0.575000X-0.100000X-0.575000X0.100000X-0.575000X0*%
%TD*%
%TA.AperFunction,ComponentPad*%
%ADD36O,0.900000X1.600000*%
%TD*%
%TA.AperFunction,SMDPad,CuDef*%
%ADD37RoundRect,0.250000X0.550000X0.450000X-0.550000X0.450000X-0.550000X-0.450000X0.550000X-0.450000X0*%
%TD*%
%TA.AperFunction,SMDPad,CuDef*%
%ADD38RoundRect,0.250000X0.700000X0.700000X-0.700000X0.700000X-0.700000X-0.700000X0.700000X-0.700000X0*%
%TD*%
%TA.AperFunction,SMDPad,CuDef*%
%ADD39RoundRect,0.237500X0.237500X-0.300000X0.237500X0.300000X-0.237500X0.300000X-0.237500X-0.300000X0*%
%TD*%
%TA.AperFunction,SMDPad,CuDef*%
%ADD40RoundRect,0.075000X0.700000X0.075000X-0.700000X0.075000X-0.700000X-0.075000X0.700000X-0.075000X0*%
%TD*%
%TA.AperFunction,SMDPad,CuDef*%
%ADD41RoundRect,0.075000X0.075000X0.700000X-0.075000X0.700000X-0.075000X-0.700000X0.075000X-0.700000X0*%
%TD*%
%TA.AperFunction,SMDPad,CuDef*%
%ADD42RoundRect,0.237500X-0.237500X0.300000X-0.237500X-0.300000X0.237500X-0.300000X0.237500X0.300000X0*%
%TD*%
%TA.AperFunction,SMDPad,CuDef*%
%ADD43R,1.250000X1.000000*%
%TD*%
%TA.AperFunction,ViaPad*%
%ADD44C,0.800000*%
%TD*%
%TA.AperFunction,Conductor*%
%ADD45C,0.800000*%
%TD*%
%TA.AperFunction,Conductor*%
%ADD46C,0.400000*%
%TD*%
%TA.AperFunction,Conductor*%
%ADD47C,0.200000*%
%TD*%
%TA.AperFunction,Conductor*%
%ADD48C,0.600000*%
%TD*%
%TA.AperFunction,Conductor*%
%ADD49C,0.254000*%
%TD*%
%TA.AperFunction,Conductor*%
%ADD50C,0.250000*%
%TD*%
%TA.AperFunction,Conductor*%
%ADD51C,0.400600*%
%TD*%
%TA.AperFunction,Conductor*%
%ADD52C,0.621000*%
%TD*%
%TA.AperFunction,Conductor*%
%ADD53C,0.641000*%
%TD*%
G04 APERTURE END LIST*
D10*
%TO.P,Y1,1,1*%
%TO.N,Net-(U3-PH0)*%
X137000000Y-105700000D03*
%TO.P,Y1,2,2*%
%TO.N,GND*%
X139900000Y-105700000D03*
%TO.P,Y1,3,3*%
%TO.N,Net-(C16-Pad1)*%
X139900000Y-103400000D03*
%TO.P,Y1,4,4*%
%TO.N,GND*%
X137000000Y-103400000D03*
%TD*%
D11*
%TO.P,D1,1,K*%
%TO.N,+VSW*%
X165700000Y-100000000D03*
%TO.P,D1,2,A*%
%TO.N,Net-(D1-A)*%
X161700000Y-100000000D03*
%TD*%
D12*
%TO.P,R4,1*%
%TO.N,Net-(U1-FB)*%
X162705000Y-97400000D03*
%TO.P,R4,2*%
%TO.N,+VSW*%
X163900000Y-97400000D03*
%TD*%
D13*
%TO.P,C9,1*%
%TO.N,GND*%
X130967500Y-111900000D03*
%TO.P,C9,2*%
%TO.N,+3.3V*%
X129832500Y-111900000D03*
%TD*%
D14*
%TO.P,R2,1*%
%TO.N,Net-(U1-VIN)*%
X151397500Y-100200000D03*
%TO.P,R2,2*%
%TO.N,VBUS*%
X150202500Y-100200000D03*
%TD*%
D15*
%TO.P,C7,1*%
%TO.N,+3.3V*%
X133700000Y-109332500D03*
%TO.P,C7,2*%
%TO.N,GND*%
X133700000Y-110467500D03*
%TD*%
D16*
%TO.P,C14,1*%
%TO.N,GND*%
X150937500Y-89000000D03*
%TO.P,C14,2*%
%TO.N,Net-(J2-~{RESET})*%
X152662500Y-89000000D03*
%TD*%
D17*
%TO.P,R12,1*%
%TO.N,+3.3V*%
X123400000Y-95105000D03*
%TO.P,R12,2*%
%TO.N,/uController/BOOT1*%
X123400000Y-96300000D03*
%TD*%
D18*
%TO.P,H1,1,1*%
%TO.N,GND*%
X103500000Y-96200000D03*
D19*
X103500000Y-96200000D03*
%TD*%
D13*
%TO.P,C16,1*%
%TO.N,Net-(C16-Pad1)*%
X139000000Y-101000000D03*
%TO.P,C16,2*%
%TO.N,GND*%
X137865000Y-101000000D03*
%TD*%
D20*
%TO.P,C12,1*%
%TO.N,GND*%
X132400000Y-110435000D03*
%TO.P,C12,2*%
%TO.N,+3.3V*%
X132400000Y-109300000D03*
%TD*%
D18*
%TO.P,H2,1,1*%
%TO.N,GND*%
X196300000Y-96200000D03*
D19*
X196300000Y-96200000D03*
%TD*%
D21*
%TO.P,J2,1,VTref*%
%TO.N,+3.3V*%
X100130000Y-106030000D03*
%TO.P,J2,2,SWDIO/TMS*%
%TO.N,/uController/JTMS*%
X100130000Y-107300000D03*
%TO.P,J2,3,GND*%
%TO.N,GND*%
X100130000Y-108570000D03*
%TO.P,J2,4,SWCLK/TCK*%
%TO.N,/uController/JTCK*%
X100130000Y-109840000D03*
%TO.P,J2,5,GND*%
%TO.N,GND*%
X100130000Y-111110000D03*
%TO.P,J2,6,SWO/TDO*%
%TO.N,/uController/JTDO*%
X101400000Y-111110000D03*
%TO.P,J2,7,KEY*%
%TO.N,unconnected-(J2-KEY-Pad7)*%
X101400000Y-109840000D03*
%TO.P,J2,8,NC/TDI*%
%TO.N,/uController/JTDI*%
X101400000Y-108570000D03*
%TO.P,J2,9,GNDDetect*%
%TO.N,GND*%
X101400000Y-107300000D03*
%TO.P,J2,10,~{RESET}*%
%TO.N,Net-(J2-~{RESET})*%
X101400000Y-106030000D03*
%TD*%
D22*
%TO.P,J3,1,Pin_1*%
%TO.N,unconnected-(J3-Pin_1-Pad1)*%
X185860000Y-92060000D03*
D23*
%TO.P,J3,2,Pin_2*%
%TO.N,unconnected-(J3-Pin_2-Pad2)*%
X188400000Y-92060000D03*
%TO.P,J3,3,Pin_3*%
%TO.N,/AttenIFace/P4THRU*%
X185860000Y-94600000D03*
%TO.P,J3,4,Pin_4*%
%TO.N,/AttenIFace/P4CONN*%
X188400000Y-94600000D03*
%TO.P,J3,5,Pin_5*%
%TO.N,unconnected-(J3-Pin_5-Pad5)*%
X185860000Y-97140000D03*
%TO.P,J3,6,Pin_6*%
%TO.N,/AttenIFace/P3THRU*%
X188400000Y-97140000D03*
%TO.P,J3,7,Pin_7*%
%TO.N,/AttenIFace/P2THRU*%
X185860000Y-99680000D03*
%TO.P,J3,8,Pin_8*%
%TO.N,/AttenIFace/P1THRU*%
X188400000Y-99680000D03*
%TO.P,J3,9,Pin_9*%
%TO.N,/AttenIFace/P1CONN*%
X185860000Y-102220000D03*
%TO.P,J3,10,Pin_10*%
%TO.N,/AttenIFace/P2CONN*%
X188400000Y-102220000D03*
%TO.P,J3,11,Pin_11*%
%TO.N,/AttenIFace/P3CONN*%
X185860000Y-104760000D03*
%TO.P,J3,12,Pin_12*%
%TO.N,+VSW*%
X188400000Y-104760000D03*
%TO.P,J3,13,Pin_13*%
%TO.N,/AttenIFace/P5CONN*%
X185860000Y-107300000D03*
%TO.P,J3,14,Pin_14*%
%TO.N,/AttenIFace/P5THRU*%
X188400000Y-107300000D03*
%TD*%
D24*
%TO.P,U4,1,DO*%
%TO.N,/uController/SPI2_MISO*%
X128725000Y-87000000D03*
%TO.P,U4,2,Vss*%
%TO.N,GND*%
X128725000Y-87950000D03*
%TO.P,U4,3,DI*%
%TO.N,/uController/SPI2_MOSI*%
X128725000Y-88900000D03*
%TO.P,U4,4,CLK*%
%TO.N,/uController/SPI2_SCK*%
X131000000Y-88900000D03*
%TO.P,U4,5,CS*%
%TO.N,/uController/~{SPI2NSS}*%
X131000000Y-87950000D03*
%TO.P,U4,6,Vcc*%
%TO.N,+3.3V*%
X131000000Y-87000000D03*
%TD*%
D20*
%TO.P,C3,1*%
%TO.N,GND*%
X165900000Y-103967500D03*
%TO.P,C3,2*%
%TO.N,+VSW*%
X165900000Y-102832500D03*
%TD*%
D24*
%TO.P,U2,1,VIN*%
%TO.N,VBUS*%
X121025000Y-89000000D03*
%TO.P,U2,2,GND*%
%TO.N,GND*%
X121025000Y-89950000D03*
%TO.P,U2,3,ON/~{OFF}*%
%TO.N,Net-(U2-ON{slash}~{OFF})*%
X121025000Y-90900000D03*
%TO.P,U2,4,BP*%
%TO.N,Net-(U2-BP)*%
X123300000Y-90900000D03*
%TO.P,U2,5,VOUT*%
%TO.N,Net-(U2-VOUT)*%
X123300000Y-89000000D03*
%TD*%
D25*
%TO.P,U1,1,SW*%
%TO.N,Net-(D1-A)*%
X158592500Y-100150000D03*
%TO.P,U1,2,GND*%
%TO.N,GND*%
X158592500Y-99200000D03*
%TO.P,U1,3,FB*%
%TO.N,Net-(U1-FB)*%
X158592500Y-98250000D03*
%TO.P,U1,4,EN*%
%TO.N,HVEnable*%
X156317500Y-98250000D03*
%TO.P,U1,5,VIN*%
%TO.N,Net-(U1-VIN)*%
X156317500Y-100150000D03*
%TD*%
D26*
%TO.P,D6,1,K*%
%TO.N,GND*%
X116200000Y-101100000D03*
%TO.P,D6,2,A*%
%TO.N,Net-(D6-A)*%
X114450000Y-101100000D03*
%TD*%
D27*
%TO.P,FID2,*%
%TO.N,*%
X201800000Y-111400000D03*
%TD*%
D13*
%TO.P,C5,1*%
%TO.N,GND*%
X125800000Y-86500000D03*
%TO.P,C5,2*%
%TO.N,Net-(U2-VOUT)*%
X124665000Y-86500000D03*
%TD*%
%TO.P,C18,1*%
%TO.N,GND*%
X133867500Y-86900000D03*
%TO.P,C18,2*%
%TO.N,+3.3V*%
X132732500Y-86900000D03*
%TD*%
D28*
%TO.P,R9,1*%
%TO.N,Net-(U3-PA0)*%
X147400000Y-90565000D03*
%TO.P,R9,2*%
%TO.N,Net-(D3-A)*%
X147400000Y-89370000D03*
%TD*%
D29*
%TO.P,D4,1,K*%
%TO.N,GND*%
X144000000Y-85725000D03*
%TO.P,D4,2,A*%
%TO.N,Net-(D4-A)*%
X144000000Y-87475000D03*
%TD*%
D30*
%TO.P,C15,1*%
%TO.N,Net-(U3-PH0)*%
X137665000Y-108100000D03*
%TO.P,C15,2*%
%TO.N,GND*%
X138800000Y-108100000D03*
%TD*%
D12*
%TO.P,R5,1*%
%TO.N,GND*%
X157405000Y-96600000D03*
%TO.P,R5,2*%
%TO.N,Net-(U1-FB)*%
X158600000Y-96600000D03*
%TD*%
D31*
%TO.P,L1,1,1*%
%TO.N,Net-(U1-VIN)*%
X156000000Y-104600000D03*
%TO.P,L1,2,2*%
%TO.N,Net-(D1-A)*%
X159000000Y-104600000D03*
%TD*%
D12*
%TO.P,R6,1*%
%TO.N,Net-(U2-VOUT)*%
X125005000Y-89000000D03*
%TO.P,R6,2*%
%TO.N,+3.3V*%
X126200000Y-89000000D03*
%TD*%
D13*
%TO.P,C2,1*%
%TO.N,+VSW*%
X163900000Y-95500000D03*
%TO.P,C2,2*%
%TO.N,Net-(U1-FB)*%
X162765000Y-95500000D03*
%TD*%
D12*
%TO.P,R1,1*%
%TO.N,VBUS*%
X156900000Y-108900000D03*
%TO.P,R1,2*%
%TO.N,+VSW*%
X158095000Y-108900000D03*
%TD*%
D32*
%TO.P,C19,1*%
%TO.N,+VSW*%
X173975000Y-107500000D03*
%TO.P,C19,2*%
%TO.N,GND*%
X177100000Y-107500000D03*
%TD*%
D33*
%TO.P,D2,1,GND*%
%TO.N,GND*%
X110800000Y-95350000D03*
D34*
%TO.P,D2,2,I/O1*%
%TO.N,/uController/USB-*%
X110800000Y-93650000D03*
%TO.P,D2,3,I/O2*%
%TO.N,/uController/USB+*%
X108800000Y-93650000D03*
%TO.P,D2,4,VCC*%
%TO.N,VBUS*%
X108800000Y-95550000D03*
%TD*%
D35*
%TO.P,J1,1,VBUS*%
%TO.N,VBUS*%
X110800000Y-88675000D03*
%TO.P,J1,2,D-*%
%TO.N,/uController/USB-*%
X110150000Y-88675000D03*
%TO.P,J1,3,D+*%
%TO.N,/uController/USB+*%
X109500000Y-88675000D03*
%TO.P,J1,4,ID*%
%TO.N,unconnected-(J1-ID-Pad4)*%
X108850000Y-88675000D03*
%TO.P,J1,5,GND*%
%TO.N,GND*%
X108200000Y-88675000D03*
D36*
%TO.P,J1,6,Shield*%
X112800000Y-86000000D03*
D37*
X112700000Y-88450000D03*
D38*
X110700000Y-86000000D03*
X108300000Y-86000000D03*
D37*
X106300000Y-88450000D03*
D36*
X106200000Y-86000000D03*
%TD*%
D39*
%TO.P,C1,1*%
%TO.N,GND*%
X153700000Y-103000000D03*
%TO.P,C1,2*%
%TO.N,Net-(U1-VIN)*%
X153700000Y-101275000D03*
%TD*%
D27*
%TO.P,FID1,*%
%TO.N,*%
X98000000Y-87500000D03*
%TD*%
D12*
%TO.P,R7,1*%
%TO.N,VBUS*%
X116705000Y-91600000D03*
%TO.P,R7,2*%
%TO.N,Net-(U2-ON{slash}~{OFF})*%
X117900000Y-91600000D03*
%TD*%
D20*
%TO.P,C8,1*%
%TO.N,+3.3V*%
X121700000Y-96300000D03*
%TO.P,C8,2*%
%TO.N,GND*%
X121700000Y-95165000D03*
%TD*%
D40*
%TO.P,U3,1,VBAT*%
%TO.N,+3.3V*%
X130775000Y-107850000D03*
%TO.P,U3,2,PC13*%
%TO.N,unconnected-(U3-PC13-Pad2)*%
X130775000Y-107350000D03*
%TO.P,U3,3,PC14*%
%TO.N,unconnected-(U3-PC14-Pad3)*%
X130775000Y-106850000D03*
%TO.P,U3,4,PC15*%
%TO.N,unconnected-(U3-PC15-Pad4)*%
X130775000Y-106350000D03*
%TO.P,U3,5,PH0*%
%TO.N,Net-(U3-PH0)*%
X130775000Y-105850000D03*
%TO.P,U3,6,PH1*%
%TO.N,Net-(U3-PH1)*%
X130775000Y-105350000D03*
%TO.P,U3,7,NRST*%
%TO.N,Net-(J2-~{RESET})*%
X130775000Y-104850000D03*
%TO.P,U3,8,PC0*%
%TO.N,S1U*%
X130775000Y-104350000D03*
%TO.P,U3,9,PC1*%
%TO.N,S1D*%
X130775000Y-103850000D03*
%TO.P,U3,10,PC2*%
%TO.N,S2U*%
X130775000Y-103350000D03*
%TO.P,U3,11,PC3*%
%TO.N,S2D*%
X130775000Y-102850000D03*
%TO.P,U3,12,VSSA*%
%TO.N,GND*%
X130775000Y-102350000D03*
%TO.P,U3,13,VDDA*%
%TO.N,Net-(U3-VDDA)*%
X130775000Y-101850000D03*
%TO.P,U3,14,PA0*%
%TO.N,Net-(U3-PA0)*%
X130775000Y-101350000D03*
%TO.P,U3,15,PA1*%
%TO.N,unconnected-(U3-PA1-Pad15)*%
X130775000Y-100850000D03*
%TO.P,U3,16,PA2*%
%TO.N,unconnected-(U3-PA2-Pad16)*%
X130775000Y-100350000D03*
D41*
%TO.P,U3,17,PA3*%
%TO.N,unconnected-(U3-PA3-Pad17)*%
X128850000Y-98425000D03*
%TO.P,U3,18,VSS*%
%TO.N,GND*%
X128350000Y-98425000D03*
%TO.P,U3,19,VDD*%
%TO.N,+3.3V*%
X127850000Y-98425000D03*
%TO.P,U3,20,PA4*%
%TO.N,S5U*%
X127350000Y-98425000D03*
%TO.P,U3,21,PA5*%
%TO.N,S5D*%
X126850000Y-98425000D03*
%TO.P,U3,22,PA6*%
%TO.N,unconnected-(U3-PA6-Pad22)*%
X126350000Y-98425000D03*
%TO.P,U3,23,PA7*%
%TO.N,unconnected-(U3-PA7-Pad23)*%
X125850000Y-98425000D03*
%TO.P,U3,24,PC4*%
%TO.N,S3U*%
X125350000Y-98425000D03*
%TO.P,U3,25,PC5*%
%TO.N,S3D*%
X124850000Y-98425000D03*
%TO.P,U3,26,PB0*%
%TO.N,Net-(U3-PB0)*%
X124350000Y-98425000D03*
%TO.P,U3,27,PB1*%
%TO.N,unconnected-(U3-PB1-Pad27)*%
X123850000Y-98425000D03*
%TO.P,U3,28,PB2*%
%TO.N,/uController/BOOT1*%
X123350000Y-98425000D03*
%TO.P,U3,29,PB10*%
%TO.N,/uController/SPI2_SCK*%
X122850000Y-98425000D03*
%TO.P,U3,30,VCAP1*%
%TO.N,Net-(U3-VCAP1)*%
X122350000Y-98425000D03*
%TO.P,U3,31,VSS*%
%TO.N,GND*%
X121850000Y-98425000D03*
%TO.P,U3,32,VDD*%
%TO.N,+3.3V*%
X121350000Y-98425000D03*
D40*
%TO.P,U3,33,PB12*%
%TO.N,unconnected-(U3-PB12-Pad33)*%
X119425000Y-100350000D03*
%TO.P,U3,34,PB13*%
%TO.N,unconnected-(U3-PB13-Pad34)*%
X119425000Y-100850000D03*
%TO.P,U3,35,PB14*%
%TO.N,/uController/SPI2_MISO*%
X119425000Y-101350000D03*
%TO.P,U3,36,PB15*%
%TO.N,/uController/SPI2_MOSI*%
X119425000Y-101850000D03*
%TO.P,U3,37,PC6*%
%TO.N,S4U*%
X119425000Y-102350000D03*
%TO.P,U3,38,PC7*%
%TO.N,S4D*%
X119425000Y-102850000D03*
%TO.P,U3,39,PC8*%
%TO.N,unconnected-(U3-PC8-Pad39)*%
X119425000Y-103350000D03*
%TO.P,U3,40,PC9*%
%TO.N,unconnected-(U3-PC9-Pad40)*%
X119425000Y-103850000D03*
%TO.P,U3,41,PA8*%
%TO.N,Net-(U3-PA8)*%
X119425000Y-104350000D03*
%TO.P,U3,42,PA9*%
%TO.N,Net-(U3-PA9)*%
X119425000Y-104850000D03*
%TO.P,U3,43,PA10*%
%TO.N,Net-(U3-PA10)*%
X119425000Y-105350000D03*
%TO.P,U3,44,PA11*%
%TO.N,/uController/USB-*%
X119425000Y-105850000D03*
%TO.P,U3,45,PA12*%
%TO.N,/uController/USB+*%
X119425000Y-106350000D03*
%TO.P,U3,46,PA13*%
%TO.N,/uController/JTMS*%
X119425000Y-106850000D03*
%TO.P,U3,47,VSS*%
%TO.N,GND*%
X119425000Y-107350000D03*
%TO.P,U3,48,VDD*%
%TO.N,+3.3V*%
X119425000Y-107850000D03*
D41*
%TO.P,U3,49,PA14*%
%TO.N,/uController/JTCK*%
X121350000Y-109775000D03*
%TO.P,U3,50,PA15*%
%TO.N,/uController/JTDI*%
X121850000Y-109775000D03*
%TO.P,U3,51,PC10*%
%TO.N,unconnected-(U3-PC10-Pad51)*%
X122350000Y-109775000D03*
%TO.P,U3,52,PC11*%
%TO.N,unconnected-(U3-PC11-Pad52)*%
X122850000Y-109775000D03*
%TO.P,U3,53,PC12*%
%TO.N,unconnected-(U3-PC12-Pad53)*%
X123350000Y-109775000D03*
%TO.P,U3,54,PD2*%
%TO.N,HVEnable*%
X123850000Y-109775000D03*
%TO.P,U3,55,PB3*%
%TO.N,/uController/JTDO*%
X124350000Y-109775000D03*
%TO.P,U3,56,PB4*%
%TO.N,unconnected-(U3-PB4-Pad56)*%
X124850000Y-109775000D03*
%TO.P,U3,57,PB5*%
%TO.N,unconnected-(U3-PB5-Pad57)*%
X125350000Y-109775000D03*
%TO.P,U3,58,PB6*%
%TO.N,unconnected-(U3-PB6-Pad58)*%
X125850000Y-109775000D03*
%TO.P,U3,59,PB7*%
%TO.N,unconnected-(U3-PB7-Pad59)*%
X126350000Y-109775000D03*
%TO.P,U3,60,BOOT0*%
%TO.N,Net-(U3-BOOT0)*%
X126850000Y-109775000D03*
%TO.P,U3,61,PB8*%
%TO.N,unconnected-(U3-PB8-Pad61)*%
X127350000Y-109775000D03*
%TO.P,U3,62,PB9*%
%TO.N,/uController/~{SPI2NSS}*%
X127850000Y-109775000D03*
%TO.P,U3,63,VSS*%
%TO.N,GND*%
X128350000Y-109775000D03*
%TO.P,U3,64,VDD*%
%TO.N,+3.3V*%
X128850000Y-109775000D03*
%TD*%
D28*
%TO.P,R13,1*%
%TO.N,Net-(U3-PB0)*%
X144000000Y-90595000D03*
%TO.P,R13,2*%
%TO.N,Net-(D4-A)*%
X144000000Y-89400000D03*
%TD*%
D42*
%TO.P,C4,1*%
%TO.N,GND*%
X118500000Y-86675000D03*
%TO.P,C4,2*%
%TO.N,VBUS*%
X118500000Y-88400000D03*
%TD*%
D14*
%TO.P,R11,1*%
%TO.N,Net-(C16-Pad1)*%
X134297500Y-105100000D03*
%TO.P,R11,2*%
%TO.N,Net-(U3-PH1)*%
X133102500Y-105100000D03*
%TD*%
D42*
%TO.P,FB1,1*%
%TO.N,+3.3V*%
X135300000Y-99175000D03*
%TO.P,FB1,2*%
%TO.N,Net-(U3-VDDA)*%
X135300000Y-100900000D03*
%TD*%
D26*
%TO.P,D5,1,K*%
%TO.N,GND*%
X116300000Y-98800000D03*
%TO.P,D5,2,A*%
%TO.N,Net-(D5-A)*%
X114550000Y-98800000D03*
%TD*%
D29*
%TO.P,D3,1,K*%
%TO.N,GND*%
X147400000Y-85725000D03*
%TO.P,D3,2,A*%
%TO.N,Net-(D3-A)*%
X147400000Y-87475000D03*
%TD*%
D20*
%TO.P,C11,1*%
%TO.N,+3.3V*%
X127800000Y-96335000D03*
%TO.P,C11,2*%
%TO.N,GND*%
X127800000Y-95200000D03*
%TD*%
D17*
%TO.P,R3,1*%
%TO.N,HVEnable*%
X153100000Y-97902500D03*
%TO.P,R3,2*%
%TO.N,Net-(U1-VIN)*%
X153100000Y-99097500D03*
%TD*%
D43*
%TO.P,SW2,1,1*%
%TO.N,Net-(U3-BOOT0)*%
X168725000Y-87100000D03*
%TO.P,SW2,2,2*%
%TO.N,+3.3V*%
X176475000Y-87100000D03*
%TD*%
D12*
%TO.P,R8,1*%
%TO.N,+3.3V*%
X151205000Y-87000000D03*
%TO.P,R8,2*%
%TO.N,Net-(J2-~{RESET})*%
X152400000Y-87000000D03*
%TD*%
D43*
%TO.P,SW1,1,1*%
%TO.N,Net-(J2-~{RESET})*%
X154950000Y-87100000D03*
%TO.P,SW1,2,2*%
%TO.N,GND*%
X162700000Y-87100000D03*
%TD*%
D26*
%TO.P,D7,1,K*%
%TO.N,GND*%
X116400000Y-103600000D03*
%TO.P,D7,2,A*%
%TO.N,Net-(D7-A)*%
X114650000Y-103600000D03*
%TD*%
D44*
%TO.N,GND*%
X118800000Y-95350000D03*
X163000000Y-88700000D03*
X117800000Y-98900000D03*
X158451757Y-93606003D03*
X159700000Y-99200000D03*
X129289000Y-102416000D03*
X131700000Y-111200000D03*
X151200000Y-88000000D03*
X127099001Y-94127201D03*
X175476017Y-101676009D03*
X135000000Y-86900000D03*
X145700000Y-85725000D03*
X99336100Y-107935000D03*
X121650000Y-99761800D03*
X154900000Y-101900000D03*
X165737999Y-105033034D03*
X157600000Y-99200000D03*
X136800000Y-101000000D03*
X116255000Y-88450000D03*
X128070000Y-108243000D03*
X127000000Y-86500000D03*
X135100000Y-103400000D03*
X121099996Y-106300000D03*
X128334000Y-99663000D03*
X102700000Y-107300000D03*
X119600000Y-89900000D03*
X98500000Y-112400000D03*
X121700000Y-94300000D03*
%TO.N,+VSW*%
X166867994Y-107500006D03*
X164648000Y-96312300D03*
%TO.N,VBUS*%
X111600000Y-91855000D03*
X108898000Y-94600000D03*
X148300000Y-100100000D03*
X116700000Y-93100000D03*
%TO.N,Net-(U2-BP)*%
X124600000Y-91800000D03*
%TO.N,+3.3V*%
X135300000Y-97600000D03*
X134474000Y-108100000D03*
X127200000Y-89000000D03*
X148322000Y-89092700D03*
X119607000Y-108717000D03*
X130207637Y-95966161D03*
X133300000Y-89000000D03*
%TO.N,Net-(U3-VDDA)*%
X127600000Y-101800000D03*
%TO.N,Net-(J2-~{RESET})*%
X115500000Y-110500000D03*
X133459000Y-104076000D03*
X137800000Y-111300000D03*
X118500000Y-113000000D03*
X152033000Y-90298200D03*
%TO.N,Net-(U3-VCAP1)*%
X123067000Y-101299000D03*
%TO.N,/uController/JTDO*%
X117437660Y-111644034D03*
X120059505Y-113073553D03*
X124707810Y-111156397D03*
X123059782Y-111613588D03*
%TO.N,/AttenIFace/P5CONN*%
X167700000Y-100400000D03*
%TO.N,/AttenIFace/P4THRU*%
X167600004Y-98700000D03*
%TO.N,Net-(U3-BOOT0)*%
X126850000Y-111600000D03*
X142854000Y-89633600D03*
X136138000Y-108109000D03*
%TO.N,Net-(U3-PB0)*%
X124138000Y-97025400D03*
X114999999Y-89599999D03*
X119700000Y-96400000D03*
X136948000Y-87565200D03*
%TO.N,/uController/~{SPI2NSS}*%
X141568000Y-104492000D03*
X135270000Y-95060000D03*
%TO.N,Net-(D5-A)*%
X113500000Y-98900000D03*
%TO.N,S5U*%
X126980000Y-96909700D03*
X161200000Y-95600000D03*
X141700000Y-99200000D03*
%TO.N,/uController/SPI2_MOSI*%
X122600000Y-104200000D03*
X122205000Y-101877000D03*
X128968000Y-89827900D03*
X134400000Y-89827900D03*
%TO.N,Net-(D6-A)*%
X113400000Y-101300000D03*
%TO.N,S3D*%
X125240383Y-93691286D03*
X147300000Y-100900000D03*
X148416000Y-104187000D03*
%TO.N,S2D*%
X138855000Y-109798000D03*
X136803000Y-109529000D03*
X132638000Y-103289000D03*
%TO.N,S1D*%
X144200000Y-112245000D03*
X147000002Y-112200000D03*
X129100000Y-104000000D03*
%TO.N,/uController/SPI2_SCK*%
X131000000Y-94800000D03*
X123614000Y-99781000D03*
%TO.N,S5D*%
X141800000Y-97800000D03*
X161300000Y-93700000D03*
X126400000Y-99800000D03*
%TO.N,S4D*%
X157891000Y-95590500D03*
X148710000Y-102510000D03*
X159790000Y-94464100D03*
X129611000Y-109126000D03*
X148711000Y-110600000D03*
%TO.N,S1U*%
X130818000Y-108884000D03*
%TO.N,S4U*%
X156305000Y-93457000D03*
X156300000Y-91600000D03*
X160933798Y-91933798D03*
X137800000Y-96300000D03*
X140054000Y-101029000D03*
%TO.N,Net-(D7-A)*%
X113500000Y-103600000D03*
%TO.N,S2U*%
X159854000Y-110434000D03*
X126976000Y-103249000D03*
X143198000Y-104492000D03*
X136700000Y-95200000D03*
X130539000Y-97282700D03*
%TO.N,S3U*%
X146146488Y-102146476D03*
X147500000Y-104700000D03*
X125400000Y-99800000D03*
%TO.N,Net-(U3-PA8)*%
X116400000Y-99900000D03*
%TO.N,Net-(U3-PA9)*%
X116600000Y-102400000D03*
%TO.N,Net-(U3-PA10)*%
X117700000Y-105175000D03*
%TD*%
D45*
%TO.N,GND*%
X100130000Y-108570000D02*
X99971100Y-108570000D01*
D46*
X147400000Y-85725000D02*
X145700000Y-85725000D01*
D47*
X121099996Y-106482414D02*
X121099996Y-106300000D01*
X99790000Y-111110000D02*
X98500000Y-112400000D01*
D45*
X175400000Y-105000000D02*
X175476017Y-104923983D01*
D47*
X128350000Y-98425000D02*
X128350000Y-99646800D01*
X116400000Y-103600000D02*
X115900000Y-103100000D01*
D45*
X113200000Y-94850000D02*
X112700000Y-95350000D01*
D47*
X100130000Y-111110000D02*
X99790000Y-111110000D01*
X115700000Y-99400000D02*
X116300000Y-98800000D01*
D45*
X176800000Y-105000000D02*
X174600000Y-105000000D01*
X104700000Y-93993000D02*
X105236000Y-94529100D01*
X177100000Y-107500000D02*
X177100000Y-108700000D01*
D48*
X133699500Y-110468000D02*
X132432000Y-110468000D01*
D45*
X137800000Y-104050000D02*
X137650000Y-104050000D01*
D47*
X121850000Y-98425000D02*
X121850000Y-99561800D01*
D45*
X151232000Y-88516200D02*
X150938000Y-88810700D01*
D47*
X116200000Y-101100000D02*
X115700000Y-100600000D01*
D49*
X108300000Y-86100000D02*
X110600000Y-86100000D01*
D48*
X121025000Y-89950000D02*
X119650000Y-89950000D01*
D45*
X144000000Y-85725000D02*
X136175000Y-85725000D01*
X175476017Y-104923983D02*
X175476017Y-101676009D01*
D47*
X119425000Y-107350000D02*
X120232410Y-107350000D01*
D46*
X157600000Y-99200000D02*
X158592500Y-99200000D01*
D48*
X132400000Y-110500000D02*
X131700000Y-111200000D01*
D47*
X128350000Y-108523000D02*
X128350000Y-109775000D01*
D48*
X119650000Y-89950000D02*
X119600000Y-89900000D01*
D45*
X177100000Y-107500000D02*
X177100000Y-105300000D01*
X154200000Y-103000000D02*
X154900000Y-102300000D01*
D47*
X137000000Y-103400000D02*
X135100000Y-103400000D01*
X137865000Y-101000000D02*
X136800000Y-101000000D01*
D45*
X105150000Y-88550000D02*
X104700000Y-89000000D01*
D48*
X131000000Y-111900000D02*
X131700000Y-111200000D01*
D45*
X136175000Y-85725000D02*
X135000000Y-86900000D01*
X104700000Y-89000000D02*
X104700000Y-93993000D01*
D46*
X145700000Y-85725000D02*
X144000000Y-85725000D01*
X151232000Y-88516200D02*
X151232000Y-88032500D01*
D45*
X177100000Y-108700000D02*
X181700000Y-113300000D01*
D46*
X127450000Y-87950000D02*
X127000000Y-87500000D01*
X165900000Y-103968000D02*
X165900000Y-104871033D01*
D45*
X154900000Y-102300000D02*
X154900000Y-101900000D01*
X106300000Y-88450000D02*
X106300000Y-86400000D01*
X177100000Y-105300000D02*
X176800000Y-105000000D01*
D46*
X163000000Y-88700000D02*
X162700000Y-88400000D01*
D45*
X150938000Y-88905300D02*
X150938000Y-89000000D01*
X196300000Y-112200000D02*
X196300000Y-96200000D01*
X174600000Y-105000000D02*
X165771033Y-105000000D01*
D47*
X121850000Y-99561800D02*
X121650000Y-99761800D01*
D45*
X113200000Y-88950000D02*
X113200000Y-94850000D01*
D46*
X121700000Y-95165000D02*
X121700000Y-94300000D01*
D45*
X112700000Y-95350000D02*
X110800000Y-95350000D01*
D49*
X112700000Y-88450000D02*
X116255000Y-88450000D01*
D45*
X106525000Y-88775000D02*
X106300000Y-88550000D01*
X137650000Y-104050000D02*
X137000000Y-103400000D01*
D49*
X118500000Y-86675000D02*
X118030000Y-86675000D01*
D46*
X128725000Y-87950000D02*
X127450000Y-87950000D01*
D45*
X132432000Y-110468000D02*
X132400000Y-110500000D01*
X105236000Y-94529100D02*
X105354000Y-94671400D01*
X156676000Y-96228500D02*
X156676000Y-95381760D01*
D48*
X117700000Y-98800000D02*
X117800000Y-98900000D01*
D45*
X133868000Y-86900000D02*
X133867500Y-86900000D01*
D47*
X139100000Y-108100000D02*
X139900000Y-107300000D01*
D45*
X165900000Y-103967500D02*
X165900000Y-103968000D01*
D47*
X138800000Y-108100000D02*
X139100000Y-108100000D01*
D45*
X116300000Y-95350000D02*
X112700000Y-95350000D01*
X116300000Y-95350000D02*
X118800000Y-95350000D01*
D47*
X130775000Y-102350000D02*
X129355000Y-102350000D01*
D45*
X112700000Y-88450000D02*
X113200000Y-88950000D01*
X181700000Y-113300000D02*
X195200000Y-113300000D01*
X157047500Y-96600000D02*
X156676000Y-96228500D01*
D47*
X115700000Y-100600000D02*
X115700000Y-99400000D01*
D45*
X107900000Y-88775000D02*
X106524998Y-88775000D01*
D46*
X165900000Y-104871033D02*
X165737999Y-105033034D01*
D48*
X132432000Y-110468000D02*
X132400000Y-110435000D01*
D46*
X127000000Y-87500000D02*
X127000000Y-86500000D01*
D45*
X133699500Y-110468000D02*
X133700000Y-110467500D01*
D46*
X162700000Y-88400000D02*
X162700000Y-87100000D01*
X151232000Y-88032500D02*
X151200000Y-88000000D01*
D45*
X112800000Y-86000000D02*
X112300000Y-86000000D01*
D46*
X127800000Y-95200000D02*
X127800000Y-94828200D01*
D45*
X106200000Y-88550000D02*
X105150000Y-88550000D01*
D47*
X137800000Y-104050000D02*
X139450000Y-105700000D01*
D49*
X118030000Y-86675000D02*
X116255000Y-88450000D01*
D46*
X158592500Y-99200000D02*
X159700000Y-99200000D01*
D45*
X116300000Y-98800000D02*
X116300000Y-95350000D01*
D47*
X115900000Y-103100000D02*
X115900000Y-101400000D01*
D45*
X139900000Y-106500000D02*
X139450000Y-106050000D01*
X156676000Y-95381760D02*
X158451757Y-93606003D01*
X153700000Y-103000000D02*
X154200000Y-103000000D01*
X106200000Y-86000000D02*
X108300000Y-86000000D01*
X165771033Y-105000000D02*
X165737999Y-105033034D01*
X106300000Y-86400000D02*
X106700000Y-86000000D01*
D47*
X139900000Y-107300000D02*
X139900000Y-106500000D01*
X128070000Y-108243000D02*
X128350000Y-108523000D01*
D45*
X195200000Y-113300000D02*
X196300000Y-112200000D01*
D46*
X125800000Y-86500000D02*
X127000000Y-86500000D01*
D45*
X112700000Y-86400000D02*
X112300000Y-86000000D01*
X99971100Y-108570000D02*
X99336100Y-107935000D01*
D47*
X128350000Y-99646800D02*
X128334000Y-99663000D01*
D46*
X127800000Y-94828200D02*
X127099001Y-94127201D01*
D48*
X116300000Y-98800000D02*
X117700000Y-98800000D01*
D45*
X112700000Y-88450000D02*
X112700000Y-86400000D01*
X157405000Y-96600000D02*
X157047500Y-96600000D01*
D46*
X151232000Y-89000000D02*
X151232000Y-88516200D01*
D45*
X150938000Y-88905300D02*
X150937500Y-88905800D01*
X150937500Y-88905800D02*
X150937500Y-89000000D01*
D46*
X133868000Y-86900000D02*
X135000000Y-86900000D01*
D47*
X120232410Y-107350000D02*
X121099996Y-106482414D01*
D45*
X130967500Y-111900000D02*
X131000000Y-111900000D01*
X150938000Y-88810700D02*
X150938000Y-88905300D01*
X112300000Y-86000000D02*
X110700000Y-86000000D01*
X115900000Y-101400000D02*
X116200000Y-101100000D01*
D47*
X101400000Y-107300000D02*
X102700000Y-107300000D01*
X129355000Y-102350000D02*
X129289000Y-102416000D01*
D46*
%TO.N,Net-(U1-VIN)*%
X156071000Y-100397000D02*
X156000000Y-100468000D01*
D48*
X153700000Y-100300000D02*
X153700000Y-101275000D01*
D47*
X153100000Y-99097500D02*
X153100000Y-100200000D01*
D48*
X153100000Y-100200000D02*
X153600000Y-100200000D01*
X153600000Y-100200000D02*
X156242000Y-100200000D01*
D46*
X156000000Y-100468000D02*
X156000000Y-104600000D01*
D48*
X151398000Y-100200000D02*
X153100000Y-100200000D01*
X153600000Y-100200000D02*
X153700000Y-100300000D01*
D46*
%TO.N,+VSW*%
X163900000Y-96312300D02*
X163900000Y-97400000D01*
X164989000Y-102832000D02*
X165899500Y-102832000D01*
D48*
X158095000Y-108900000D02*
X162400000Y-108900000D01*
D46*
X165900000Y-102832000D02*
X166044000Y-102688000D01*
X165700000Y-98950000D02*
X165700000Y-100000000D01*
X163800000Y-104021000D02*
X164989000Y-102832000D01*
X163900000Y-97400000D02*
X165200000Y-97400000D01*
X165700000Y-97900000D02*
X165700000Y-98950000D01*
D45*
X164648000Y-96312300D02*
X163900000Y-96312300D01*
D46*
X166044000Y-102688000D02*
X166044000Y-100344000D01*
D45*
X165899500Y-102832000D02*
X165900000Y-102832500D01*
X166868000Y-107500000D02*
X166867994Y-107500006D01*
D46*
X165200000Y-97400000D02*
X165700000Y-97900000D01*
X163800000Y-107500000D02*
X163800000Y-104021000D01*
D45*
X173975000Y-107500000D02*
X166868000Y-107500000D01*
X163800000Y-107500000D02*
X166868000Y-107500000D01*
D48*
X162400000Y-108900000D02*
X163800000Y-107500000D01*
D46*
X163900000Y-95500000D02*
X163900000Y-96312300D01*
%TO.N,Net-(U1-FB)*%
X162765000Y-97245800D02*
X162765000Y-97340000D01*
X158592000Y-97635300D02*
X158592000Y-96607500D01*
X158592000Y-97635800D02*
X158592000Y-97635300D01*
D50*
X158592000Y-97942900D02*
X158592500Y-97943400D01*
D46*
X158592000Y-98250000D02*
X158592000Y-97942900D01*
D50*
X158592000Y-97635800D02*
X158592000Y-97942900D01*
X158592000Y-97942900D02*
X158592000Y-98250000D01*
D46*
X160700000Y-96600000D02*
X158600000Y-96600000D01*
X158592000Y-97942900D02*
X158592000Y-97635800D01*
X161500000Y-97400000D02*
X160700000Y-96600000D01*
X162705000Y-97400000D02*
X161500000Y-97400000D01*
X162765000Y-95500000D02*
X162765000Y-97245800D01*
D50*
X158592000Y-97635300D02*
X158592000Y-97635800D01*
X158592500Y-97943400D02*
X158592500Y-98250000D01*
D51*
%TO.N,VBUS*%
X110800000Y-88775000D02*
X110800000Y-88675000D01*
D48*
X118500000Y-88400000D02*
X116705000Y-90195000D01*
X148400000Y-100200000D02*
X148300000Y-100100000D01*
X150202500Y-101104500D02*
X150202500Y-100200000D01*
D45*
X108800000Y-94698300D02*
X108898000Y-94600000D01*
X108800000Y-95550000D02*
X108800000Y-94698300D01*
D48*
X116705000Y-93095000D02*
X116700000Y-93100000D01*
X150202000Y-101105000D02*
X150202500Y-101104500D01*
X120425000Y-88400000D02*
X118500000Y-88400000D01*
X121025000Y-89000000D02*
X120425000Y-88400000D01*
X156900000Y-108900000D02*
X155200000Y-108900000D01*
X111600000Y-91600000D02*
X110800000Y-90800000D01*
X110800000Y-90800000D02*
X110800000Y-90200000D01*
X150202000Y-103902000D02*
X150202000Y-101105000D01*
X150202000Y-100200000D02*
X148400000Y-100200000D01*
X116705000Y-91600000D02*
X116705000Y-93095000D01*
X155200000Y-108900000D02*
X150202000Y-103902000D01*
X116705000Y-90195000D02*
X116705000Y-91600000D01*
D47*
X110800000Y-88775000D02*
X110800000Y-90200000D01*
D45*
%TO.N,Net-(U2-VOUT)*%
X123300000Y-89000000D02*
X125005000Y-89000000D01*
D48*
X125005000Y-89000000D02*
X125005000Y-88105000D01*
X125005000Y-88105000D02*
X124665000Y-87765000D01*
X124665000Y-87765000D02*
X124665000Y-86500000D01*
D49*
%TO.N,Net-(U2-BP)*%
X124600000Y-91800000D02*
X124200000Y-91800000D01*
X124200000Y-91800000D02*
X123300000Y-90900000D01*
D45*
%TO.N,+3.3V*%
X164300000Y-85800000D02*
X152014000Y-85800000D01*
D50*
X133450000Y-107850000D02*
X133700000Y-108100000D01*
D45*
X133700000Y-109332000D02*
X133700000Y-109332500D01*
X152014000Y-85800000D02*
X150914000Y-86900000D01*
D50*
X132400000Y-107850000D02*
X132400000Y-109300000D01*
D52*
X129223524Y-96335000D02*
X129900000Y-95658524D01*
D45*
X167300000Y-88800000D02*
X164300000Y-85800000D01*
D47*
X99915700Y-104284000D02*
X100981000Y-103219000D01*
D45*
X129900000Y-95658524D02*
X130207637Y-95966161D01*
X129832000Y-111900000D02*
X129832500Y-111900000D01*
D52*
X127850000Y-96385000D02*
X127800000Y-96335000D01*
D53*
X150914000Y-87000000D02*
X151205000Y-87000000D01*
D50*
X128850000Y-107997695D02*
X128252305Y-107400000D01*
D46*
X132090000Y-109300000D02*
X132400000Y-109300000D01*
D45*
X150914000Y-87000000D02*
X150914000Y-86900000D01*
X150914000Y-86900000D02*
X150515000Y-86900000D01*
D47*
X106219000Y-103219000D02*
X110470000Y-107470000D01*
X100981000Y-103219000D02*
X106219000Y-103219000D01*
D50*
X132400000Y-107850000D02*
X133450000Y-107850000D01*
D46*
X129832000Y-111558000D02*
X132090000Y-109300000D01*
D47*
X121700000Y-97267600D02*
X121700000Y-96300000D01*
D46*
X128252305Y-107400000D02*
X121700000Y-107400000D01*
D50*
X119425000Y-108535000D02*
X119607000Y-108717000D01*
X128850000Y-109775000D02*
X128850000Y-107997695D01*
D45*
X135300000Y-99175000D02*
X135300000Y-97600000D01*
D46*
X126200000Y-89000000D02*
X127200000Y-89000000D01*
X123100000Y-92700000D02*
X127200000Y-92700000D01*
D50*
X128850000Y-109775000D02*
X128850000Y-111650000D01*
X121700000Y-96300000D02*
X122200000Y-96300000D01*
D45*
X176475000Y-87100000D02*
X174775000Y-88800000D01*
D50*
X129100000Y-111900000D02*
X129832000Y-111900000D01*
D47*
X127850000Y-98425000D02*
X127850000Y-96385000D01*
X121350000Y-97617600D02*
X121700000Y-97267600D01*
D50*
X123400000Y-95105000D02*
X122505000Y-95105000D01*
X122200000Y-96300000D02*
X122500000Y-96000000D01*
X122500000Y-95100000D02*
X122500000Y-93300000D01*
D46*
X121200000Y-107900000D02*
X120800000Y-107900000D01*
D50*
X128850000Y-111650000D02*
X129100000Y-111900000D01*
X119425000Y-107850000D02*
X119425000Y-108535000D01*
D45*
X129000000Y-92700000D02*
X129900000Y-93600000D01*
D46*
X129832000Y-111900000D02*
X129832000Y-111558000D01*
D47*
X116323798Y-107850000D02*
X119425000Y-107850000D01*
D46*
X121250000Y-107850000D02*
X121200000Y-107900000D01*
D52*
X127800000Y-96335000D02*
X129223524Y-96335000D01*
D50*
X130775000Y-107850000D02*
X132400000Y-107850000D01*
X122500000Y-96000000D02*
X122500000Y-95100000D01*
D45*
X132732000Y-87225200D02*
X132732000Y-87049200D01*
X129900000Y-93600000D02*
X129900000Y-95658524D01*
D46*
X132732000Y-86900000D02*
X131100000Y-86900000D01*
D45*
X132732000Y-87049200D02*
X132732000Y-86900000D01*
X127200000Y-92700000D02*
X129000000Y-92700000D01*
D47*
X119425000Y-107850000D02*
X120750000Y-107850000D01*
D46*
X127200000Y-89000000D02*
X127200000Y-92700000D01*
D45*
X174775000Y-88800000D02*
X167300000Y-88800000D01*
X150515000Y-86900000D02*
X148322000Y-89092700D01*
X132732500Y-87048700D02*
X132732500Y-86900000D01*
D50*
X133700000Y-108100000D02*
X133700000Y-109332000D01*
D45*
X134474000Y-108100000D02*
X133700000Y-108100000D01*
D47*
X121350000Y-98425000D02*
X121350000Y-97617600D01*
D46*
X122500000Y-93300000D02*
X123100000Y-92700000D01*
D45*
X132732000Y-87049200D02*
X132732500Y-87048700D01*
X133300000Y-89000000D02*
X133300000Y-87792700D01*
D47*
X115943798Y-107470000D02*
X116323798Y-107850000D01*
D46*
X121700000Y-107400000D02*
X121250000Y-107850000D01*
D45*
X133300000Y-87792700D02*
X132732000Y-87225200D01*
D47*
X99915700Y-105816000D02*
X99915700Y-104284000D01*
X110470000Y-107470000D02*
X115943798Y-107470000D01*
D50*
X119375000Y-107900000D02*
X119425000Y-107850000D01*
D47*
X100130000Y-106030000D02*
X99915700Y-105816000D01*
X120750000Y-107850000D02*
X120800000Y-107900000D01*
D45*
X131000000Y-87000000D02*
X131100000Y-86900000D01*
D47*
X122505000Y-95105000D02*
X122500000Y-95100000D01*
D50*
%TO.N,Net-(U3-VDDA)*%
X129675000Y-101593000D02*
X129932000Y-101850000D01*
X135300000Y-100900000D02*
X134400000Y-101800000D01*
X133800000Y-101800000D02*
X133750000Y-101850000D01*
X134400000Y-101800000D02*
X133800000Y-101800000D01*
X129932000Y-101850000D02*
X130775000Y-101850000D01*
X127807000Y-101593000D02*
X129675000Y-101593000D01*
X127600000Y-101800000D02*
X127807000Y-101593000D01*
X133750000Y-101850000D02*
X130775000Y-101850000D01*
%TO.N,Net-(J2-~{RESET})*%
X130775000Y-104850000D02*
X132160000Y-104850000D01*
D46*
X152400500Y-87000000D02*
X154850000Y-87000000D01*
D50*
X137800000Y-112100000D02*
X135760000Y-114140000D01*
X152662000Y-89211600D02*
X152662000Y-88310700D01*
X132933000Y-104076000D02*
X133459000Y-104076000D01*
X132160000Y-104850000D02*
X132933000Y-104076000D01*
X101894000Y-106524000D02*
X107154000Y-106524000D01*
X111130000Y-110500000D02*
X115500000Y-110500000D01*
X119640000Y-114140000D02*
X118500000Y-113000000D01*
X135760000Y-114140000D02*
X119640000Y-114140000D01*
X107154000Y-106524000D02*
X111130000Y-110500000D01*
X152662000Y-89668300D02*
X152662000Y-89211600D01*
X152662000Y-88310700D02*
X152368000Y-88016200D01*
X101400000Y-106030000D02*
X101894000Y-106524000D01*
D46*
X152368000Y-88016200D02*
X152368000Y-87032500D01*
X152368000Y-89000000D02*
X152368000Y-88016200D01*
D50*
X152033000Y-90298200D02*
X152662000Y-89668300D01*
X137800000Y-111300000D02*
X137800000Y-112100000D01*
D47*
%TO.N,Net-(U3-PH0)*%
X132640000Y-105850000D02*
X133190000Y-106400000D01*
D50*
X136873200Y-107024800D02*
X136248400Y-106400000D01*
X137665000Y-107024800D02*
X136873200Y-107024800D01*
D47*
X130775000Y-105850000D02*
X132640000Y-105850000D01*
X137665000Y-108100000D02*
X137665000Y-107024800D01*
X137665000Y-106694900D02*
X137665000Y-106365000D01*
X137665000Y-107024800D02*
X137665000Y-106694900D01*
D50*
X137665000Y-106694900D02*
X137000000Y-106029900D01*
D47*
X133190000Y-106400000D02*
X136248400Y-106400000D01*
%TO.N,Net-(C16-Pad1)*%
X139000000Y-101500000D02*
X138500000Y-102000000D01*
X139000000Y-101000000D02*
X139000000Y-101500000D01*
X134298000Y-104600000D02*
X134298000Y-102902000D01*
D50*
X134298000Y-104600000D02*
X134298000Y-104850000D01*
D47*
X134298000Y-105100000D02*
X134298000Y-104850000D01*
X138500000Y-102000000D02*
X139900000Y-103400000D01*
X134298000Y-104850000D02*
X134298000Y-104600000D01*
D50*
X134297500Y-104850500D02*
X134297500Y-105100000D01*
X134298000Y-104850000D02*
X134298000Y-105100000D01*
D47*
X134298000Y-102902000D02*
X135200000Y-102000000D01*
D50*
X134298000Y-104850000D02*
X134297500Y-104850500D01*
D47*
X135200000Y-102000000D02*
X138500000Y-102000000D01*
%TO.N,Net-(U3-VCAP1)*%
X122350000Y-98425000D02*
X122350000Y-100582000D01*
X122350000Y-100582000D02*
X123067000Y-101299000D01*
D48*
%TO.N,Net-(D1-A)*%
X161550000Y-100150000D02*
X158592500Y-100150000D01*
D45*
X159000000Y-102700000D02*
X161550000Y-100150000D01*
X159000000Y-104600000D02*
X159000000Y-102700000D01*
D47*
%TO.N,/uController/USB+*%
X109600000Y-93700000D02*
X109600000Y-89887500D01*
X118262000Y-106350000D02*
X118237000Y-106325000D01*
X109600000Y-104918000D02*
X109600000Y-93700000D01*
X109600000Y-89887500D02*
X109500000Y-89787500D01*
X118237000Y-106325000D02*
X111007000Y-106325000D01*
X108800000Y-93650000D02*
X109550000Y-93650000D01*
X111007000Y-106325000D02*
X109600000Y-104918000D01*
X109500000Y-89787500D02*
X109500000Y-88788600D01*
X109550000Y-93650000D02*
X109600000Y-93700000D01*
X119425000Y-106350000D02*
X118262000Y-106350000D01*
%TO.N,/uController/USB-*%
X110800000Y-93650000D02*
X110100000Y-93650000D01*
X110150000Y-89787500D02*
X110050000Y-89887500D01*
X118262000Y-105850000D02*
X118237000Y-105875000D01*
X118237000Y-105875000D02*
X111193000Y-105875000D01*
X111193000Y-105875000D02*
X110050000Y-104732000D01*
X119425000Y-105850000D02*
X118262000Y-105850000D01*
X110150000Y-88775000D02*
X110150000Y-89787500D01*
X110050000Y-104732000D02*
X110050000Y-93600000D01*
X110100000Y-93650000D02*
X110050000Y-93600000D01*
X110050000Y-89887500D02*
X110050000Y-93600000D01*
D46*
%TO.N,Net-(D3-A)*%
X147400000Y-89370000D02*
X147400000Y-87475000D01*
%TO.N,Net-(D4-A)*%
X144000000Y-89400000D02*
X144000000Y-87475000D01*
D50*
%TO.N,/uController/JTDI*%
X106365000Y-108570000D02*
X109095000Y-111300000D01*
X116981269Y-110901391D02*
X118879609Y-110901391D01*
X118879609Y-110901391D02*
X121136000Y-108645000D01*
X121577000Y-108645000D02*
X121850000Y-108918000D01*
X101400000Y-108570000D02*
X106365000Y-108570000D01*
X116582660Y-111300000D02*
X116981269Y-110901391D01*
X121136000Y-108645000D02*
X121577000Y-108645000D01*
X121850000Y-108918000D02*
X121850000Y-109775000D01*
X109095000Y-111300000D02*
X116582660Y-111300000D01*
D47*
%TO.N,/uController/JTDO*%
X103150000Y-112500000D02*
X116581694Y-112500000D01*
X101760000Y-111110000D02*
X103150000Y-112500000D01*
X123059782Y-111613588D02*
X123059782Y-111840218D01*
X123059782Y-111840218D02*
X121826447Y-113073553D01*
X124350000Y-110798587D02*
X124707810Y-111156397D01*
X121826447Y-113073553D02*
X120059505Y-113073553D01*
X116581694Y-112500000D02*
X117437660Y-111644034D01*
X101400000Y-111110000D02*
X101760000Y-111110000D01*
X124350000Y-109775000D02*
X124350000Y-110798587D01*
D50*
%TO.N,/uController/JTCK*%
X97525300Y-108667000D02*
X96436200Y-109756000D01*
X118245847Y-112045000D02*
X119080000Y-112045000D01*
X98376900Y-113355000D02*
X116935847Y-113355000D01*
X96436200Y-109756000D02*
X96436200Y-111414000D01*
X100130000Y-109840000D02*
X98957000Y-108667000D01*
X116935847Y-113355000D02*
X118245847Y-112045000D01*
X119080000Y-112045000D02*
X121350000Y-109775000D01*
X98957000Y-108667000D02*
X97525300Y-108667000D01*
X96436200Y-111414000D02*
X98376900Y-113355000D01*
%TO.N,/uController/JTMS*%
X105946000Y-102448000D02*
X97990000Y-102448000D01*
X97990000Y-102448000D02*
X96398200Y-104040000D01*
X96398200Y-104040000D02*
X96398200Y-105456000D01*
X119425000Y-106850000D02*
X110348000Y-106850000D01*
X97848900Y-106906000D02*
X99736300Y-106906000D01*
X99736300Y-106906000D02*
X100130000Y-107300000D01*
X110348000Y-106850000D02*
X105946000Y-102448000D01*
X96398200Y-105456000D02*
X97848900Y-106906000D01*
%TO.N,/AttenIFace/P5CONN*%
X185860000Y-107300000D02*
X178960000Y-100400000D01*
X178960000Y-100400000D02*
X167700000Y-100400000D01*
%TO.N,/AttenIFace/P4THRU*%
X181760000Y-98700000D02*
X167600004Y-98700000D01*
X185860000Y-94600000D02*
X181760000Y-98700000D01*
%TO.N,HVEnable*%
X123850000Y-113199000D02*
X123850000Y-109775000D01*
X154400000Y-97900000D02*
X154398000Y-97902500D01*
X138354000Y-110645000D02*
X138154000Y-110445000D01*
X156317500Y-98250000D02*
X154950000Y-98250000D01*
X142294000Y-104368000D02*
X142294000Y-107567000D01*
X154398000Y-97902500D02*
X153100000Y-97902500D01*
X153100000Y-97902500D02*
X149181000Y-97902500D01*
X142897000Y-103765000D02*
X142294000Y-104368000D01*
X124279000Y-113628000D02*
X123850000Y-113199000D01*
X133993000Y-113628000D02*
X124279000Y-113628000D01*
X154950000Y-98250000D02*
X154600000Y-97900000D01*
X139217000Y-110645000D02*
X138354000Y-110645000D01*
X154600000Y-97900000D02*
X154400000Y-97900000D01*
X142294000Y-107567000D02*
X139217000Y-110645000D01*
X138154000Y-110445000D02*
X137176000Y-110445000D01*
X149181000Y-97902500D02*
X143319000Y-103765000D01*
X137176000Y-110445000D02*
X133993000Y-113628000D01*
X143319000Y-103765000D02*
X142897000Y-103765000D01*
D49*
%TO.N,Net-(U2-ON{slash}~{OFF})*%
X120325000Y-91600000D02*
X121025000Y-90900000D01*
D48*
X117900000Y-91600000D02*
X120325000Y-91600000D01*
D50*
%TO.N,Net-(U3-PA0)*%
X137928000Y-100038000D02*
X147400000Y-90565000D01*
X130775000Y-101350000D02*
X133510000Y-101350000D01*
X134823000Y-100038000D02*
X137928000Y-100038000D01*
X133510000Y-101350000D02*
X134823000Y-100038000D01*
%TO.N,Net-(U3-BOOT0)*%
X149844000Y-85148000D02*
X148392000Y-86600000D01*
X148392000Y-86600000D02*
X143548200Y-86600000D01*
X136138000Y-109892000D02*
X136138000Y-110671000D01*
X136077000Y-108170000D02*
X136077000Y-109830000D01*
X166773000Y-85148000D02*
X149844000Y-85148000D01*
X126850000Y-111600000D02*
X126850000Y-109775000D01*
X143548200Y-86600000D02*
X142854000Y-87294200D01*
X126850000Y-111954600D02*
X126850000Y-111600000D01*
X168725000Y-87100000D02*
X166773000Y-85148000D01*
X127377000Y-113177000D02*
X126850000Y-112650000D01*
X136138000Y-108109000D02*
X136077000Y-108170000D01*
X133632000Y-113177000D02*
X127377000Y-113177000D01*
X136077000Y-109830000D02*
X136138000Y-109892000D01*
X126850000Y-112650000D02*
X126850000Y-111954600D01*
X142854000Y-87294200D02*
X142854000Y-89633600D01*
X136138000Y-110671000D02*
X133632000Y-113177000D01*
%TO.N,Net-(U3-PH1)*%
X132902000Y-105300000D02*
X133002000Y-105200000D01*
D47*
X132902000Y-105300000D02*
X132700000Y-105300000D01*
X132650000Y-105350000D02*
X130775000Y-105350000D01*
X132700000Y-105300000D02*
X132650000Y-105350000D01*
D50*
%TO.N,/uController/BOOT1*%
X123350000Y-96728200D02*
X123400000Y-96678200D01*
X123400000Y-96678200D02*
X123400000Y-96300000D01*
D47*
X123350000Y-98425000D02*
X123350000Y-96728200D01*
X123350000Y-96728200D02*
X123350000Y-96350000D01*
D50*
%TO.N,Net-(U3-PB0)*%
X118955000Y-94480000D02*
X116980000Y-94480000D01*
X144000000Y-90595000D02*
X139978000Y-90595000D01*
X116980000Y-94480000D02*
X114999999Y-92499999D01*
X124350000Y-97237700D02*
X124138000Y-97025400D01*
X119700000Y-96400000D02*
X119700000Y-95224700D01*
X124350000Y-98425000D02*
X124350000Y-97237700D01*
X119700000Y-95224700D02*
X118955000Y-94480000D01*
X114999999Y-92499999D02*
X114999999Y-89599999D01*
X139978000Y-90595000D02*
X136948000Y-87565200D01*
%TO.N,/uController/~{SPI2NSS}*%
X135849000Y-107362000D02*
X136472000Y-107362000D01*
X135376000Y-110171000D02*
X135376000Y-107834000D01*
X127850000Y-111941000D02*
X128578000Y-112669000D01*
X135270000Y-92385700D02*
X135270000Y-95060000D01*
X127850000Y-109775000D02*
X127850000Y-111941000D01*
X133246000Y-112005000D02*
X134165000Y-112005000D01*
X135636000Y-110534000D02*
X135636000Y-110431000D01*
X131000000Y-87950000D02*
X131662000Y-87950000D01*
X136865000Y-108404000D02*
X137445000Y-108984000D01*
X134165000Y-112005000D02*
X135636000Y-110534000D01*
X132300000Y-89415600D02*
X135270000Y-92385700D01*
X128578000Y-112669000D02*
X132583000Y-112669000D01*
X141568000Y-106731000D02*
X141568000Y-104492000D01*
X135636000Y-110431000D02*
X135376000Y-110171000D01*
X132300000Y-88587500D02*
X132300000Y-89415600D01*
X131662000Y-87950000D02*
X132300000Y-88587500D01*
X135376000Y-107834000D02*
X135849000Y-107362000D01*
X137445000Y-108984000D02*
X139314000Y-108984000D01*
X136472000Y-107362000D02*
X136865000Y-107754000D01*
X139314000Y-108984000D02*
X141568000Y-106731000D01*
X132583000Y-112669000D02*
X133246000Y-112005000D01*
X136865000Y-107754000D02*
X136865000Y-108404000D01*
D47*
%TO.N,Net-(D5-A)*%
X113500000Y-98900000D02*
X114450000Y-98900000D01*
%TO.N,S5U*%
X148273000Y-92627000D02*
X141700000Y-99200000D01*
X161200000Y-94883800D02*
X159104332Y-92788132D01*
X127350000Y-97279300D02*
X126980000Y-96909700D01*
X127350000Y-98425000D02*
X127350000Y-97279300D01*
X157190754Y-92627000D02*
X148273000Y-92627000D01*
X159104332Y-92788132D02*
X157351886Y-92788132D01*
X161200000Y-95600000D02*
X161200000Y-94883800D01*
X157351886Y-92788132D02*
X157190754Y-92627000D01*
D50*
%TO.N,/uController/SPI2_MOSI*%
X134400000Y-89827900D02*
X138727000Y-94154800D01*
X135912000Y-97178500D02*
X135575000Y-96841200D01*
X138727000Y-94154800D02*
X138727000Y-96718000D01*
X138266000Y-97178500D02*
X135912000Y-97178500D01*
X124000000Y-104200000D02*
X122600000Y-104200000D01*
X128725000Y-88900000D02*
X128725000Y-89585400D01*
X122178000Y-101850000D02*
X122205000Y-101877000D01*
X127241000Y-100959000D02*
X124000000Y-104200000D01*
X138727000Y-96718000D02*
X138266000Y-97178500D01*
X132940000Y-96841200D02*
X128822000Y-100959000D01*
X128725000Y-89585400D02*
X128968000Y-89827900D01*
X119425000Y-101850000D02*
X122178000Y-101850000D01*
X135575000Y-96841200D02*
X132940000Y-96841200D01*
X128822000Y-100959000D02*
X127241000Y-100959000D01*
D47*
%TO.N,Net-(D6-A)*%
X113400000Y-101300000D02*
X114250000Y-101300000D01*
D50*
%TO.N,/uController/SPI2_MISO*%
X127467000Y-85741700D02*
X124344000Y-85741700D01*
X118323000Y-99762000D02*
X118323000Y-101092000D01*
X120292000Y-93181700D02*
X120292000Y-95782500D01*
X124344000Y-85741700D02*
X122162000Y-87923000D01*
X120292000Y-95782500D02*
X120555000Y-96045800D01*
X120555000Y-96045800D02*
X120555000Y-97530000D01*
X118582000Y-101350000D02*
X119425000Y-101350000D01*
X128725000Y-87000000D02*
X127467000Y-85741700D01*
X120555000Y-97530000D02*
X118323000Y-99762000D01*
X118323000Y-101092000D02*
X118582000Y-101350000D01*
X122162000Y-87923000D02*
X122162000Y-91310900D01*
X122162000Y-91310900D02*
X120292000Y-93181700D01*
D47*
%TO.N,S3D*%
X147300000Y-100900000D02*
X147300000Y-103071000D01*
X124850000Y-98425000D02*
X124850000Y-94081669D01*
X147300000Y-103071000D02*
X148416000Y-104187000D01*
X124850000Y-94081669D02*
X125240383Y-93691286D01*
D50*
%TO.N,S2D*%
X130775000Y-102850000D02*
X132200000Y-102850000D01*
X132200000Y-102850000D02*
X132638000Y-103289000D01*
X137072000Y-109798000D02*
X138855000Y-109798000D01*
X136803000Y-109529000D02*
X137072000Y-109798000D01*
D47*
%TO.N,S1D*%
X146955002Y-112245000D02*
X147000002Y-112200000D01*
X129250000Y-103850000D02*
X129100000Y-104000000D01*
X144200000Y-112245000D02*
X146955002Y-112245000D01*
X130775000Y-103850000D02*
X129250000Y-103850000D01*
%TO.N,/uController/SPI2_SCK*%
X122850000Y-99232400D02*
X123399000Y-99781000D01*
X123399000Y-99781000D02*
X123614000Y-99781000D01*
X122850000Y-98425000D02*
X122850000Y-99232400D01*
X131000000Y-88900000D02*
X131000000Y-94800000D01*
%TO.N,S5D*%
X161300000Y-93700000D02*
X160061132Y-92461132D01*
X147300000Y-92300000D02*
X141800000Y-97800000D01*
X157487334Y-92461132D02*
X157326202Y-92300000D01*
X126850000Y-98425000D02*
X126850000Y-99350000D01*
X160061132Y-92461132D02*
X157487334Y-92461132D01*
X126850000Y-99350000D02*
X126400000Y-99800000D01*
X157326202Y-92300000D02*
X147300000Y-92300000D01*
D50*
%TO.N,S4D*%
X159790000Y-94464100D02*
X159017000Y-94464100D01*
X159017000Y-94464100D02*
X157891000Y-95590500D01*
X121745000Y-104654000D02*
X122246000Y-105155000D01*
X149194000Y-102994000D02*
X149194000Y-110117000D01*
X122246000Y-105155000D02*
X126855000Y-105155000D01*
X129252000Y-108767000D02*
X129611000Y-109126000D01*
X126855000Y-105155000D02*
X129252000Y-107552000D01*
X148710000Y-102510000D02*
X149194000Y-102994000D01*
X129252000Y-107552000D02*
X129252000Y-108767000D01*
X149194000Y-110117000D02*
X148711000Y-110600000D01*
X119425000Y-102850000D02*
X120341000Y-102850000D01*
X120341000Y-102850000D02*
X121745000Y-104254000D01*
X121745000Y-104254000D02*
X121745000Y-104654000D01*
%TO.N,S1U*%
X129629000Y-104633000D02*
X129912000Y-104350000D01*
X129629000Y-108095000D02*
X129629000Y-104633000D01*
X130818000Y-108884000D02*
X130418000Y-108884000D01*
X129912000Y-104350000D02*
X130775000Y-104350000D01*
X130418000Y-108884000D02*
X129629000Y-108095000D01*
%TO.N,S4U*%
X153041000Y-93457000D02*
X156305000Y-93457000D01*
X126992000Y-100508000D02*
X128635000Y-100508000D01*
X119425000Y-102350000D02*
X121339000Y-102350000D01*
X160933798Y-91933798D02*
X156633798Y-91933798D01*
X156633798Y-91933798D02*
X156300000Y-91600000D01*
X124300000Y-103200000D02*
X126992000Y-100508000D01*
X121339000Y-102350000D02*
X122189000Y-103200000D01*
X132843000Y-96300000D02*
X137800000Y-96300000D01*
X122189000Y-103200000D02*
X124300000Y-103200000D01*
X140054000Y-101029000D02*
X145469000Y-101029000D01*
X145469000Y-101029000D02*
X153041000Y-93457000D01*
X128635000Y-100508000D02*
X132843000Y-96300000D01*
D47*
%TO.N,Net-(D7-A)*%
X113500000Y-103600000D02*
X114650000Y-103600000D01*
D50*
%TO.N,S2U*%
X129759000Y-103350000D02*
X129659000Y-103249000D01*
X135985000Y-95915000D02*
X131906000Y-95915000D01*
X143198000Y-107752000D02*
X143198000Y-104492000D01*
X129659000Y-103249000D02*
X126976000Y-103249000D01*
X158888000Y-111400000D02*
X146847000Y-111400000D01*
X130775000Y-103350000D02*
X129759000Y-103350000D01*
X136700000Y-95200000D02*
X135985000Y-95915000D01*
X131906000Y-95915000D02*
X130539000Y-97282700D01*
X146847000Y-111400000D02*
X143198000Y-107752000D01*
X159854000Y-110434000D02*
X158888000Y-111400000D01*
D47*
%TO.N,S3U*%
X146146488Y-103346488D02*
X146146488Y-102146476D01*
X125400000Y-99800000D02*
X125400000Y-98475000D01*
X147500000Y-104700000D02*
X146146488Y-103346488D01*
%TO.N,Net-(U3-PA8)*%
X119425000Y-104350000D02*
X118548000Y-104350000D01*
X118152000Y-101652000D02*
X116400000Y-99900000D01*
X118152000Y-103954000D02*
X118152000Y-101652000D01*
X118548000Y-104350000D02*
X118152000Y-103954000D01*
D50*
%TO.N,Net-(U3-PA9)*%
X117800000Y-104100000D02*
X117800000Y-103600000D01*
X117800000Y-103600000D02*
X116600000Y-102400000D01*
X118550000Y-104850000D02*
X117800000Y-104100000D01*
X119425000Y-104850000D02*
X118550000Y-104850000D01*
%TO.N,Net-(U3-PA10)*%
X119425000Y-105350000D02*
X117875000Y-105350000D01*
X117875000Y-105350000D02*
X117700000Y-105175000D01*
%TD*%
M02*
