%TF.GenerationSoftware,KiCad,Pcbnew,8.0.2*%
%TF.CreationDate,2024-05-20T13:08:33-07:00*%
%TF.ProjectId,USB_8769M,5553425f-3837-4363-994d-2e6b69636164,rev?*%
%TF.SameCoordinates,Original*%
%TF.FileFunction,Copper,L2,Bot*%
%TF.FilePolarity,Positive*%
%FSLAX46Y46*%
G04 Gerber Fmt 4.6, Leading zero omitted, Abs format (unit mm)*
G04 Created by KiCad (PCBNEW 8.0.2) date 2024-05-20 13:08:33*
%MOMM*%
%LPD*%
G01*
G04 APERTURE LIST*
G04 Aperture macros list*
%AMRoundRect*
0 Rectangle with rounded corners*
0 $1 Rounding radius*
0 $2 $3 $4 $5 $6 $7 $8 $9 X,Y pos of 4 corners*
0 Add a 4 corners polygon primitive as box body*
4,1,4,$2,$3,$4,$5,$6,$7,$8,$9,$2,$3,0*
0 Add four circle primitives for the rounded corners*
1,1,$1+$1,$2,$3*
1,1,$1+$1,$4,$5*
1,1,$1+$1,$6,$7*
1,1,$1+$1,$8,$9*
0 Add four rect primitives between the rounded corners*
20,1,$1+$1,$2,$3,$4,$5,0*
20,1,$1+$1,$4,$5,$6,$7,0*
20,1,$1+$1,$6,$7,$8,$9,0*
20,1,$1+$1,$8,$9,$2,$3,0*%
G04 Aperture macros list end*
%TA.AperFunction,ComponentPad*%
%ADD10C,3.600000*%
%TD*%
%TA.AperFunction,ConnectorPad*%
%ADD11C,5.600000*%
%TD*%
%TA.AperFunction,ComponentPad*%
%ADD12RoundRect,0.250000X-0.600000X-0.600000X0.600000X-0.600000X0.600000X0.600000X-0.600000X0.600000X0*%
%TD*%
%TA.AperFunction,ComponentPad*%
%ADD13C,1.700000*%
%TD*%
%TA.AperFunction,ComponentPad*%
%ADD14O,0.900000X1.600000*%
%TD*%
%TA.AperFunction,SMDPad,CuDef*%
%ADD15RoundRect,0.155000X0.212500X0.155000X-0.212500X0.155000X-0.212500X-0.155000X0.212500X-0.155000X0*%
%TD*%
%TA.AperFunction,SMDPad,CuDef*%
%ADD16RoundRect,0.137500X-0.662500X-0.137500X0.662500X-0.137500X0.662500X0.137500X-0.662500X0.137500X0*%
%TD*%
%TA.AperFunction,SMDPad,CuDef*%
%ADD17RoundRect,0.160000X0.197500X0.160000X-0.197500X0.160000X-0.197500X-0.160000X0.197500X-0.160000X0*%
%TD*%
%TA.AperFunction,SMDPad,CuDef*%
%ADD18RoundRect,0.237500X0.300000X0.237500X-0.300000X0.237500X-0.300000X-0.237500X0.300000X-0.237500X0*%
%TD*%
%TA.AperFunction,SMDPad,CuDef*%
%ADD19RoundRect,0.155000X-0.212500X-0.155000X0.212500X-0.155000X0.212500X0.155000X-0.212500X0.155000X0*%
%TD*%
%TA.AperFunction,SMDPad,CuDef*%
%ADD20C,1.000000*%
%TD*%
%TA.AperFunction,SMDPad,CuDef*%
%ADD21RoundRect,0.155000X-0.155000X0.212500X-0.155000X-0.212500X0.155000X-0.212500X0.155000X0.212500X0*%
%TD*%
%TA.AperFunction,ViaPad*%
%ADD22C,0.800000*%
%TD*%
%TA.AperFunction,Conductor*%
%ADD23C,0.800000*%
%TD*%
%TA.AperFunction,Conductor*%
%ADD24C,0.200000*%
%TD*%
%TA.AperFunction,Conductor*%
%ADD25C,0.400000*%
%TD*%
%TA.AperFunction,Conductor*%
%ADD26C,0.600000*%
%TD*%
%TA.AperFunction,Conductor*%
%ADD27C,0.254000*%
%TD*%
%TA.AperFunction,Conductor*%
%ADD28C,0.250000*%
%TD*%
G04 APERTURE END LIST*
D10*
%TO.P,H1,1,1*%
%TO.N,GND*%
X103500000Y-96200000D03*
D11*
X103500000Y-96200000D03*
%TD*%
D10*
%TO.P,H2,1,1*%
%TO.N,GND*%
X196300000Y-96200000D03*
D11*
X196300000Y-96200000D03*
%TD*%
D12*
%TO.P,J3,1,Pin_1*%
%TO.N,unconnected-(J3-Pin_1-Pad1)*%
X185860000Y-92060000D03*
D13*
%TO.P,J3,2,Pin_2*%
%TO.N,unconnected-(J3-Pin_2-Pad2)*%
X188400000Y-92060000D03*
%TO.P,J3,3,Pin_3*%
%TO.N,/AttenIFace/P4THRU*%
X185860000Y-94600000D03*
%TO.P,J3,4,Pin_4*%
%TO.N,/AttenIFace/P4CONN*%
X188400000Y-94600000D03*
%TO.P,J3,5,Pin_5*%
%TO.N,unconnected-(J3-Pin_5-Pad5)*%
X185860000Y-97140000D03*
%TO.P,J3,6,Pin_6*%
%TO.N,/AttenIFace/P3THRU*%
X188400000Y-97140000D03*
%TO.P,J3,7,Pin_7*%
%TO.N,/AttenIFace/P2THRU*%
X185860000Y-99680000D03*
%TO.P,J3,8,Pin_8*%
%TO.N,/AttenIFace/P1THRU*%
X188400000Y-99680000D03*
%TO.P,J3,9,Pin_9*%
%TO.N,/AttenIFace/P1CONN*%
X185860000Y-102220000D03*
%TO.P,J3,10,Pin_10*%
%TO.N,/AttenIFace/P2CONN*%
X188400000Y-102220000D03*
%TO.P,J3,11,Pin_11*%
%TO.N,/AttenIFace/P3CONN*%
X185860000Y-104760000D03*
%TO.P,J3,12,Pin_12*%
%TO.N,+VSW*%
X188400000Y-104760000D03*
%TO.P,J3,13,Pin_13*%
%TO.N,/AttenIFace/P5CONN*%
X185860000Y-107300000D03*
%TO.P,J3,14,Pin_14*%
%TO.N,/AttenIFace/P5THRU*%
X188400000Y-107300000D03*
%TD*%
D14*
%TO.P,J1,6,Shield*%
%TO.N,GND*%
X112800000Y-86000000D03*
X106200000Y-86000000D03*
%TD*%
D15*
%TO.P,C10,1*%
%TO.N,+3.3V*%
X118467500Y-109000000D03*
%TO.P,C10,2*%
%TO.N,GND*%
X117332500Y-109000000D03*
%TD*%
D16*
%TO.P,U6,1,I1*%
%TO.N,S4U*%
X162850000Y-99145000D03*
%TO.P,U6,2,I2*%
%TO.N,S4D*%
X162850000Y-97875000D03*
%TO.P,U6,3,I3*%
%TO.N,S5U*%
X162850000Y-96605000D03*
%TO.P,U6,4,I4*%
%TO.N,S5D*%
X162850000Y-95335000D03*
%TO.P,U6,5,I5*%
%TO.N,unconnected-(U6-I5-Pad5)*%
X162850000Y-94065000D03*
%TO.P,U6,6,I6*%
%TO.N,unconnected-(U6-I6-Pad6)*%
X162850000Y-92795000D03*
%TO.P,U6,7,I7*%
%TO.N,unconnected-(U6-I7-Pad7)*%
X162850000Y-91525000D03*
%TO.P,U6,8,GND*%
%TO.N,GND*%
X162850000Y-90255000D03*
%TO.P,U6,9,COM*%
%TO.N,+VSW*%
X169350000Y-90255000D03*
%TO.P,U6,10,O7*%
%TO.N,unconnected-(U6-O7-Pad10)*%
X169350000Y-91525000D03*
%TO.P,U6,11,O6*%
%TO.N,unconnected-(U6-O6-Pad11)*%
X169350000Y-92795000D03*
%TO.P,U6,12,O5*%
%TO.N,unconnected-(U6-O5-Pad12)*%
X169350000Y-94065000D03*
%TO.P,U6,13,O4*%
%TO.N,/AttenIFace/P5CONN*%
X169350000Y-95335000D03*
%TO.P,U6,14,O3*%
%TO.N,/AttenIFace/P5THRU*%
X169350000Y-96605000D03*
%TO.P,U6,15,O2*%
%TO.N,/AttenIFace/P4CONN*%
X169350000Y-97875000D03*
%TO.P,U6,16,O1*%
%TO.N,/AttenIFace/P4THRU*%
X169350000Y-99145000D03*
%TD*%
D17*
%TO.P,R10,1*%
%TO.N,GND*%
X126897500Y-107800000D03*
%TO.P,R10,2*%
%TO.N,Net-(U3-BOOT0)*%
X125702500Y-107800000D03*
%TD*%
%TO.P,R15,1*%
%TO.N,Net-(U3-PA9)*%
X115995000Y-101300000D03*
%TO.P,R15,2*%
%TO.N,Net-(D6-A)*%
X114800000Y-101300000D03*
%TD*%
D18*
%TO.P,C20,1*%
%TO.N,GND*%
X173800000Y-99200000D03*
%TO.P,C20,2*%
%TO.N,+VSW*%
X172075000Y-99200000D03*
%TD*%
D15*
%TO.P,C6,1*%
%TO.N,GND*%
X125967500Y-90900000D03*
%TO.P,C6,2*%
%TO.N,Net-(U2-BP)*%
X124832500Y-90900000D03*
%TD*%
D16*
%TO.P,U5,1,I1*%
%TO.N,S1U*%
X163000000Y-111680000D03*
%TO.P,U5,2,I2*%
%TO.N,S1D*%
X163000000Y-110410000D03*
%TO.P,U5,3,I3*%
%TO.N,S2U*%
X163000000Y-109140000D03*
%TO.P,U5,4,I4*%
%TO.N,S2D*%
X163000000Y-107870000D03*
%TO.P,U5,5,I5*%
%TO.N,S3U*%
X163000000Y-106600000D03*
%TO.P,U5,6,I6*%
%TO.N,S3D*%
X163000000Y-105330000D03*
%TO.P,U5,7,I7*%
%TO.N,unconnected-(U5-I7-Pad7)*%
X163000000Y-104060000D03*
%TO.P,U5,8,GND*%
%TO.N,GND*%
X163000000Y-102790000D03*
%TO.P,U5,9,COM*%
%TO.N,+VSW*%
X169500000Y-102790000D03*
%TO.P,U5,10,O7*%
%TO.N,unconnected-(U5-O7-Pad10)*%
X169500000Y-104060000D03*
%TO.P,U5,11,O6*%
%TO.N,/AttenIFace/P3CONN*%
X169500000Y-105330000D03*
%TO.P,U5,12,O5*%
%TO.N,/AttenIFace/P3THRU*%
X169500000Y-106600000D03*
%TO.P,U5,13,O4*%
%TO.N,/AttenIFace/P2CONN*%
X169500000Y-107870000D03*
%TO.P,U5,14,O3*%
%TO.N,/AttenIFace/P2THRU*%
X169500000Y-109140000D03*
%TO.P,U5,15,O2*%
%TO.N,/AttenIFace/P1CONN*%
X169500000Y-110410000D03*
%TO.P,U5,16,O1*%
%TO.N,/AttenIFace/P1THRU*%
X169500000Y-111680000D03*
%TD*%
D19*
%TO.P,C17,1*%
%TO.N,GND*%
X121665000Y-100400000D03*
%TO.P,C17,2*%
%TO.N,Net-(U3-VCAP1)*%
X122800000Y-100400000D03*
%TD*%
D20*
%TO.P,FID4,*%
%TO.N,*%
X201800000Y-111400000D03*
%TD*%
D17*
%TO.P,R14,1*%
%TO.N,Net-(U3-PA8)*%
X116097500Y-98900000D03*
%TO.P,R14,2*%
%TO.N,Net-(D5-A)*%
X114902500Y-98900000D03*
%TD*%
D18*
%TO.P,C21,1*%
%TO.N,GND*%
X173800000Y-101710000D03*
%TO.P,C21,2*%
%TO.N,+VSW*%
X172075000Y-101710000D03*
%TD*%
D21*
%TO.P,C13,1*%
%TO.N,Net-(U3-VDDA)*%
X128500000Y-101765000D03*
%TO.P,C13,2*%
%TO.N,GND*%
X128500000Y-102900000D03*
%TD*%
D20*
%TO.P,FID3,*%
%TO.N,*%
X98000000Y-87500000D03*
%TD*%
D17*
%TO.P,R16,1*%
%TO.N,Net-(U3-PA10)*%
X116095000Y-103600000D03*
%TO.P,R16,2*%
%TO.N,Net-(D7-A)*%
X114900000Y-103600000D03*
%TD*%
D22*
%TO.N,GND*%
X118800000Y-95350000D03*
X163000000Y-88700000D03*
X117800000Y-98900000D03*
X158451757Y-93606003D03*
X159700000Y-99200000D03*
X129289000Y-102416000D03*
X131700000Y-111200000D03*
X151200000Y-88000000D03*
X127099001Y-94127201D03*
X175476017Y-101676009D03*
X135000000Y-86900000D03*
X145700000Y-85725000D03*
X99336100Y-107935000D03*
X121650000Y-99761800D03*
X154900000Y-101900000D03*
X165737999Y-105033034D03*
X157600000Y-99200000D03*
X136800000Y-101000000D03*
X116255000Y-88450000D03*
X128070000Y-108243000D03*
X127000000Y-86500000D03*
X135100000Y-103400000D03*
X121099996Y-106300000D03*
X128334000Y-99663000D03*
X102700000Y-107300000D03*
X119600000Y-89900000D03*
X98500000Y-112400000D03*
X121700000Y-94300000D03*
%TO.N,+VSW*%
X166867994Y-107500006D03*
X164648000Y-96312300D03*
%TO.N,VBUS*%
X111600000Y-91855000D03*
X108898000Y-94600000D03*
X148300000Y-100100000D03*
X116700000Y-93100000D03*
%TO.N,Net-(U2-BP)*%
X124600000Y-91800000D03*
%TO.N,+3.3V*%
X135300000Y-97600000D03*
X134474000Y-108100000D03*
X127200000Y-89000000D03*
X148322000Y-89092700D03*
X119607000Y-108717000D03*
X130207637Y-95966161D03*
X133300000Y-89000000D03*
%TO.N,Net-(U3-VDDA)*%
X127600000Y-101800000D03*
%TO.N,Net-(J2-~{RESET})*%
X115500000Y-110500000D03*
X133459000Y-104076000D03*
X137800000Y-111300000D03*
X118500000Y-113000000D03*
X152033000Y-90298200D03*
%TO.N,Net-(U3-VCAP1)*%
X123067000Y-101299000D03*
%TO.N,/uController/JTDO*%
X117437660Y-111644034D03*
X120059505Y-113073553D03*
X124707810Y-111156397D03*
X123059782Y-111613588D03*
%TO.N,/AttenIFace/P5CONN*%
X167700000Y-100400000D03*
%TO.N,/AttenIFace/P4THRU*%
X167600004Y-98700000D03*
%TO.N,Net-(U3-BOOT0)*%
X126850000Y-111600000D03*
X142854000Y-89633600D03*
X136138000Y-108109000D03*
%TO.N,Net-(U3-PB0)*%
X124138000Y-97025400D03*
X114999999Y-89599999D03*
X119700000Y-96400000D03*
X136948000Y-87565200D03*
%TO.N,/uController/~{SPI2NSS}*%
X141568000Y-104492000D03*
X135270000Y-95060000D03*
%TO.N,Net-(D5-A)*%
X113500000Y-98900000D03*
%TO.N,S5U*%
X126980000Y-96909700D03*
X161200000Y-95600000D03*
X141700000Y-99200000D03*
%TO.N,/uController/SPI2_MOSI*%
X122600000Y-104200000D03*
X122205000Y-101877000D03*
X128968000Y-89827900D03*
X134400000Y-89827900D03*
%TO.N,Net-(D6-A)*%
X113400000Y-101300000D03*
%TO.N,S3D*%
X125240383Y-93691286D03*
X147300000Y-100900000D03*
X148416000Y-104187000D03*
%TO.N,S2D*%
X138855000Y-109798000D03*
X136803000Y-109529000D03*
X132638000Y-103289000D03*
%TO.N,S1D*%
X144200000Y-112245000D03*
X147000002Y-112200000D03*
X129100000Y-104000000D03*
%TO.N,/uController/SPI2_SCK*%
X131000000Y-94800000D03*
X123614000Y-99781000D03*
%TO.N,S5D*%
X141800000Y-97800000D03*
X161300000Y-93700000D03*
X126400000Y-99800000D03*
%TO.N,S4D*%
X157891000Y-95590500D03*
X148710000Y-102510000D03*
X159790000Y-94464100D03*
X129611000Y-109126000D03*
X148711000Y-110600000D03*
%TO.N,S1U*%
X130818000Y-108884000D03*
%TO.N,S4U*%
X156305000Y-93457000D03*
X156300000Y-91600000D03*
X160933798Y-91933798D03*
X137800000Y-96300000D03*
X140054000Y-101029000D03*
%TO.N,Net-(D7-A)*%
X113500000Y-103600000D03*
%TO.N,S2U*%
X159854000Y-110434000D03*
X126976000Y-103249000D03*
X143198000Y-104492000D03*
X136700000Y-95200000D03*
X130539000Y-97282700D03*
%TO.N,S3U*%
X146146488Y-102146476D03*
X147500000Y-104700000D03*
X125400000Y-99800000D03*
%TO.N,Net-(U3-PA8)*%
X116400000Y-99900000D03*
%TO.N,Net-(U3-PA9)*%
X116600000Y-102400000D03*
%TO.N,Net-(U3-PA10)*%
X117700000Y-105175000D03*
%TD*%
D23*
%TO.N,GND*%
X125968000Y-89900000D02*
X125968000Y-90900000D01*
X158760000Y-94862300D02*
X158760000Y-93914246D01*
X160164905Y-88000000D02*
X151200000Y-88000000D01*
X120700000Y-106300000D02*
X121099996Y-106300000D01*
X159021000Y-95122500D02*
X159021000Y-95927400D01*
X116605000Y-88100000D02*
X116255000Y-88450000D01*
X129429000Y-102276000D02*
X129289000Y-102416000D01*
X124402000Y-94300000D02*
X124932000Y-94830000D01*
X165737999Y-104234999D02*
X165737999Y-105033034D01*
X175442026Y-101710000D02*
X175476017Y-101676009D01*
X158760000Y-93914246D02*
X158451757Y-93606003D01*
X128334000Y-99663000D02*
X129429000Y-100758000D01*
X121700000Y-94300000D02*
X120650000Y-95350000D01*
X117800000Y-98900000D02*
X118702000Y-99802000D01*
X120099996Y-107300000D02*
X121099996Y-106300000D01*
X147975000Y-88000000D02*
X145700000Y-85725000D01*
X124932000Y-94830000D02*
X126396202Y-94830000D01*
X160882732Y-89717162D02*
X160882732Y-88717827D01*
X135100000Y-102575000D02*
X134799000Y-102274000D01*
X158451757Y-93606003D02*
X158451757Y-92148135D01*
X128070000Y-108243000D02*
X128070000Y-107800000D01*
D24*
X99766400Y-108365000D02*
X99336100Y-107935000D01*
D23*
X129429000Y-102276000D02*
X129429000Y-102556000D01*
X129429000Y-100758000D02*
X129429000Y-102276000D01*
X161490000Y-102790000D02*
X163000000Y-102790000D01*
X128070000Y-103330000D02*
X128070000Y-106400000D01*
X159021000Y-95927400D02*
X159700000Y-96606900D01*
X105500000Y-98200000D02*
X103500000Y-96200000D01*
X117800000Y-88100000D02*
X116605000Y-88100000D01*
X125967500Y-90900000D02*
X125968000Y-90900000D01*
X163000000Y-102790000D02*
X164293000Y-102790000D01*
X134799000Y-102274000D02*
X129431000Y-102274000D01*
X130270786Y-111200000D02*
X131700000Y-111200000D01*
X120700000Y-106300000D02*
X120700000Y-101132000D01*
D25*
X126897500Y-107800000D02*
X128070000Y-107800000D01*
D24*
X98500000Y-112400000D02*
X99766400Y-111134000D01*
D23*
X159700000Y-101000000D02*
X161490000Y-102790000D01*
X127000000Y-86500000D02*
X127000000Y-86900000D01*
X120650000Y-95350000D02*
X118800000Y-95350000D01*
X159700000Y-96606900D02*
X159700000Y-99200000D01*
X127970000Y-106300000D02*
X128070000Y-106400000D01*
X128070000Y-106400000D02*
X128070000Y-107800000D01*
X99971100Y-107300000D02*
X99336100Y-107935000D01*
X129431000Y-102274000D02*
X129429000Y-102276000D01*
D24*
X121650000Y-99761800D02*
X121650000Y-100182000D01*
D23*
X129104000Y-102900000D02*
X128500000Y-102900000D01*
X158760000Y-94862300D02*
X159021000Y-95122500D01*
X121700000Y-94300000D02*
X124402000Y-94300000D01*
D25*
X162850000Y-90255000D02*
X161420568Y-90255000D01*
D23*
X164293000Y-102790000D02*
X165737999Y-104234999D01*
X159700000Y-99200000D02*
X159700000Y-101000000D01*
X118702000Y-99802000D02*
X121610000Y-99802000D01*
X160882732Y-88717827D02*
X160164905Y-88000000D01*
X151200000Y-88000000D02*
X147975000Y-88000000D01*
X105500000Y-107300000D02*
X105500000Y-98200000D01*
X173800000Y-101710000D02*
X175442026Y-101710000D01*
D25*
X161420568Y-90255000D02*
X160882730Y-89717162D01*
D23*
X121610000Y-99802000D02*
X121650000Y-99761800D01*
X129429000Y-102575000D02*
X129104000Y-102900000D01*
X157600000Y-99200000D02*
X154900000Y-101900000D01*
D24*
X121650000Y-100182000D02*
X121650000Y-100385000D01*
D25*
X160900559Y-88700000D02*
X160882730Y-88717829D01*
D23*
X129429000Y-102556000D02*
X129429000Y-102575000D01*
X120700000Y-101132000D02*
X121650000Y-100182000D01*
X128070000Y-108999214D02*
X130270786Y-111200000D01*
X117400000Y-107300000D02*
X120099996Y-107300000D01*
X136073000Y-101000000D02*
X136800000Y-101000000D01*
X105500000Y-107300000D02*
X102700000Y-107300000D01*
X173800000Y-101710000D02*
X173800000Y-99200000D01*
X102700000Y-107300000D02*
X99971100Y-107300000D01*
D25*
X117332500Y-107367500D02*
X117400000Y-107300000D01*
D23*
X121665000Y-100400000D02*
X121650000Y-100385000D01*
X135100000Y-103400000D02*
X135100000Y-102575000D01*
D25*
X117332500Y-109000000D02*
X117332500Y-107367500D01*
D23*
X117400000Y-107300000D02*
X105500000Y-107300000D01*
X126396202Y-94830000D02*
X127099001Y-94127201D01*
X129429000Y-102556000D02*
X129289000Y-102416000D01*
X158451757Y-92148135D02*
X160882730Y-89717162D01*
X128500000Y-102900000D02*
X128070000Y-103330000D01*
X128070000Y-108243000D02*
X128070000Y-108999214D01*
X127000000Y-86900000D02*
X125968000Y-87932500D01*
X125968000Y-87932500D02*
X125968000Y-89900000D01*
X119600000Y-89900000D02*
X117800000Y-88100000D01*
X120700000Y-106300000D02*
X127970000Y-106300000D01*
D25*
X163000000Y-88700000D02*
X160900559Y-88700000D01*
D23*
X125968000Y-89900000D02*
X119600000Y-89900000D01*
X127000000Y-86900000D02*
X135000000Y-86900000D01*
X134799000Y-102274000D02*
X136073000Y-101000000D01*
D24*
X99766400Y-111134000D02*
X99766400Y-108365000D01*
D23*
%TO.N,+VSW*%
X166867994Y-104622007D02*
X166867994Y-107500006D01*
X164648000Y-96312300D02*
X164648000Y-94339100D01*
X172075000Y-101710000D02*
X172075000Y-99200000D01*
X169605000Y-90000000D02*
X190200000Y-90000000D01*
X190140000Y-104760000D02*
X188400000Y-104760000D01*
X192000000Y-91800000D02*
X192000000Y-102900000D01*
X164648000Y-94339100D02*
X168732000Y-90255000D01*
X172075000Y-101710000D02*
X170580000Y-101710000D01*
X169500000Y-102790000D02*
X168700001Y-102790000D01*
X170580000Y-101710000D02*
X169500000Y-102790000D01*
X192000000Y-102900000D02*
X190140000Y-104760000D01*
X168732000Y-90255000D02*
X169350000Y-90255000D01*
X169350000Y-90255000D02*
X169605000Y-90000000D01*
X190200000Y-90000000D02*
X192000000Y-91800000D01*
X168700001Y-102790000D02*
X166867994Y-104622007D01*
D26*
%TO.N,VBUS*%
X113100000Y-93100000D02*
X111600000Y-91600000D01*
D25*
X111600000Y-91855000D02*
X111855000Y-91855000D01*
D26*
X124973000Y-92670000D02*
X124543000Y-93100000D01*
X116700000Y-93100000D02*
X113100000Y-93100000D01*
D25*
X108898000Y-91855000D02*
X111600000Y-91855000D01*
D26*
X139273000Y-91073000D02*
X127424000Y-91073000D01*
X125827000Y-92670000D02*
X124973000Y-92670000D01*
X111600000Y-91600000D02*
X111600000Y-91855000D01*
X124543000Y-93100000D02*
X116700000Y-93100000D01*
X127424000Y-91073000D02*
X125827000Y-92670000D01*
D25*
X108898000Y-94600000D02*
X108898000Y-91855000D01*
D26*
X148300000Y-100100000D02*
X139273000Y-91073000D01*
D27*
%TO.N,Net-(U2-BP)*%
X124832000Y-91233200D02*
X124832000Y-91233700D01*
X124832000Y-91066600D02*
X124832000Y-91233200D01*
X124832000Y-91567500D02*
X124600000Y-91800000D01*
X124832000Y-91233700D02*
X124832000Y-91567500D01*
D28*
X124832000Y-91233700D02*
X124832000Y-91233200D01*
X124832000Y-91233200D02*
X124832000Y-91066600D01*
D23*
%TO.N,+3.3V*%
X147042000Y-88598100D02*
X133702000Y-88598100D01*
X137811000Y-104763000D02*
X134474000Y-108100000D01*
X147537000Y-89092700D02*
X147042000Y-88598100D01*
D25*
X118467500Y-109000000D02*
X119324000Y-109000000D01*
X119324000Y-109000000D02*
X119607000Y-108717000D01*
D23*
X148322000Y-89092700D02*
X147537000Y-89092700D01*
X135300000Y-97600000D02*
X137811000Y-100111000D01*
X137811000Y-100111000D02*
X137811000Y-104763000D01*
X133666161Y-95966161D02*
X130207637Y-95966161D01*
X135300000Y-97600000D02*
X133666161Y-95966161D01*
X133702000Y-88598100D02*
X133300000Y-89000000D01*
D25*
X127200000Y-89000000D02*
X133300000Y-89000000D01*
D28*
%TO.N,Net-(U3-VDDA)*%
X127600000Y-101800000D02*
X128465000Y-101800000D01*
%TO.N,Net-(J2-~{RESET})*%
X133459000Y-108137000D02*
X133459000Y-104076000D01*
X115500000Y-110500000D02*
X115500000Y-112400002D01*
X137800000Y-109085000D02*
X137800000Y-111300000D01*
X136502000Y-108802000D02*
X136452000Y-108853000D01*
X137517000Y-108802000D02*
X137800000Y-109085000D01*
X116099998Y-113000000D02*
X118500000Y-113000000D01*
X140402000Y-105708000D02*
X137517000Y-108592000D01*
X136452000Y-108853000D02*
X134175000Y-108853000D01*
X152033000Y-98161200D02*
X144486000Y-105708000D01*
X115500000Y-112400002D02*
X116099998Y-113000000D01*
X144486000Y-105708000D02*
X140402000Y-105708000D01*
X137517000Y-108592000D02*
X137517000Y-108802000D01*
X134175000Y-108853000D02*
X133459000Y-108137000D01*
X152033000Y-90298200D02*
X152033000Y-98161200D01*
X137517000Y-108802000D02*
X136502000Y-108802000D01*
D24*
%TO.N,Net-(U3-VCAP1)*%
X122800000Y-101032000D02*
X123067000Y-101299000D01*
X122800000Y-100400000D02*
X122800000Y-101032000D01*
%TO.N,/uController/JTDO*%
X123059782Y-111613588D02*
X124250619Y-111613588D01*
X118629986Y-111644034D02*
X117437660Y-111644034D01*
X124250619Y-111613588D02*
X124707810Y-111156397D01*
X120059505Y-113073553D02*
X118629986Y-111644034D01*
D28*
%TO.N,/AttenIFace/P2THRU*%
X180724000Y-99680000D02*
X185860000Y-99680000D01*
X171264000Y-109140000D02*
X180724000Y-99680000D01*
X169500000Y-109140000D02*
X171264000Y-109140000D01*
%TO.N,/AttenIFace/P3THRU*%
X182411505Y-95949400D02*
X171760905Y-106600000D01*
X171760905Y-106600000D02*
X169500000Y-106600000D01*
X188400000Y-97140000D02*
X187209400Y-95949400D01*
X187209400Y-95949400D02*
X182411505Y-95949400D01*
%TO.N,/AttenIFace/P5CONN*%
X166445000Y-96845847D02*
X166445000Y-99145000D01*
X167955847Y-95335000D02*
X166445000Y-96845847D01*
X169350000Y-95335000D02*
X167955847Y-95335000D01*
X166445000Y-99145000D02*
X167700000Y-100400000D01*
%TO.N,/AttenIFace/P4CONN*%
X169999000Y-97226400D02*
X177608000Y-97226400D01*
X187183000Y-93383200D02*
X188400000Y-94600000D01*
X181452000Y-93383200D02*
X187183000Y-93383200D01*
X169350000Y-97875000D02*
X169999000Y-97226400D01*
X177608000Y-97226400D02*
X181452000Y-93383200D01*
%TO.N,/AttenIFace/P2CONN*%
X171630000Y-107870000D02*
X181037400Y-98462600D01*
X189603000Y-101017000D02*
X188400000Y-102220000D01*
X181037400Y-98462600D02*
X188902000Y-98462600D01*
X169500000Y-107870000D02*
X171630000Y-107870000D01*
X188902000Y-98462600D02*
X189603000Y-99163800D01*
X189603000Y-99163800D02*
X189603000Y-101017000D01*
%TO.N,/AttenIFace/P1THRU*%
X170637000Y-111680000D02*
X181365000Y-100952000D01*
X169500000Y-111680000D02*
X170637000Y-111680000D01*
X187128000Y-100952000D02*
X188400000Y-99680000D01*
X181365000Y-100952000D02*
X187128000Y-100952000D01*
%TO.N,/AttenIFace/P1CONN*%
X185860000Y-102220000D02*
X175782000Y-112298000D01*
X168590000Y-110410000D02*
X169500000Y-110410000D01*
X175782000Y-112298000D02*
X168298000Y-112298000D01*
X168177000Y-112177000D02*
X168177000Y-110823000D01*
X168177000Y-110823000D02*
X168590000Y-110410000D01*
X168298000Y-112298000D02*
X168177000Y-112177000D01*
%TO.N,/AttenIFace/P5THRU*%
X190077000Y-102222000D02*
X188809000Y-103490000D01*
X169350000Y-96605000D02*
X174720000Y-96605000D01*
X180473000Y-90852500D02*
X188868000Y-90852500D01*
X174720000Y-96605000D02*
X180473000Y-90852500D01*
X188868000Y-90852500D02*
X190077000Y-92061400D01*
X188809000Y-103490000D02*
X187969000Y-103490000D01*
X190077000Y-92061400D02*
X190077000Y-102222000D01*
X187186000Y-106086000D02*
X188400000Y-107300000D01*
X187186000Y-104273000D02*
X187186000Y-106086000D01*
X187969000Y-103490000D02*
X187186000Y-104273000D01*
%TO.N,/AttenIFace/P4THRU*%
X169350000Y-99145000D02*
X168045004Y-99145000D01*
X168045004Y-99145000D02*
X167600004Y-98700000D01*
%TO.N,/AttenIFace/P3CONN*%
X167800000Y-106806000D02*
X169276000Y-105330000D01*
X177620000Y-113000000D02*
X168300000Y-113000000D01*
X167800000Y-112500000D02*
X167800000Y-106806000D01*
X168300000Y-113000000D02*
X167800000Y-112500000D01*
X185860000Y-104760000D02*
X177620000Y-113000000D01*
%TO.N,Net-(U3-BOOT0)*%
X126850000Y-109250000D02*
X126850000Y-111600000D01*
X149075000Y-95854000D02*
X149075000Y-100420000D01*
X139028000Y-105218000D02*
X136138000Y-108109000D01*
X149075000Y-100420000D02*
X144276000Y-105218000D01*
X144276000Y-105218000D02*
X139028000Y-105218000D01*
X125702500Y-107800000D02*
X125702500Y-108102500D01*
X142854000Y-89633600D02*
X149075000Y-95854000D01*
X125702500Y-108102500D02*
X126850000Y-109250000D01*
%TO.N,Net-(U3-PB0)*%
X124138000Y-97025400D02*
X119700000Y-97025400D01*
X116136000Y-85730700D02*
X114999999Y-86866701D01*
X135113000Y-85730700D02*
X116136000Y-85730700D01*
X119700000Y-97025400D02*
X119700000Y-96400000D01*
X114999999Y-86866701D02*
X114999999Y-89599999D01*
X136948000Y-87565200D02*
X135113000Y-85730700D01*
%TO.N,/uController/~{SPI2NSS}*%
X135379000Y-96466200D02*
X135379000Y-95169000D01*
X138559000Y-101483000D02*
X138559000Y-99646000D01*
X141568000Y-104492000D02*
X138559000Y-101483000D01*
X138559000Y-99646000D02*
X135379000Y-96466200D01*
X135379000Y-95169000D02*
X135270000Y-95060000D01*
D24*
%TO.N,Net-(D5-A)*%
X114902000Y-98900000D02*
X113500000Y-98900000D01*
%TO.N,S5U*%
X130119700Y-93770000D02*
X136270000Y-93770000D01*
X136270000Y-93770000D02*
X141700000Y-99200000D01*
X126980000Y-96909700D02*
X130119700Y-93770000D01*
X162205000Y-96605000D02*
X161200000Y-95600000D01*
D28*
%TO.N,/uController/SPI2_MOSI*%
X122600000Y-102272000D02*
X122600000Y-104200000D01*
X128968000Y-89827900D02*
X134400000Y-89827900D01*
X122205000Y-101877000D02*
X122600000Y-102272000D01*
D24*
%TO.N,Net-(D6-A)*%
X114800000Y-101300000D02*
X113400000Y-101300000D01*
%TO.N,S3D*%
X128200000Y-92000000D02*
X126508714Y-93691286D01*
X149559000Y-105330000D02*
X148416000Y-104187000D01*
X126508714Y-93691286D02*
X125240383Y-93691286D01*
X138400000Y-92000000D02*
X128200000Y-92000000D01*
X147300000Y-100900000D02*
X138400000Y-92000000D01*
X163000000Y-105330000D02*
X149559000Y-105330000D01*
D28*
%TO.N,S2D*%
X139109000Y-110052000D02*
X138855000Y-109798000D01*
X134029000Y-109529000D02*
X132638000Y-108138000D01*
X163000000Y-107870000D02*
X149428000Y-107870000D01*
X132638000Y-108138000D02*
X132638000Y-103289000D01*
X149428000Y-107870000D02*
X147246000Y-110052000D01*
X136803000Y-109529000D02*
X134029000Y-109529000D01*
X147246000Y-110052000D02*
X139109000Y-110052000D01*
D24*
%TO.N,S1D*%
X129100000Y-105400000D02*
X135945000Y-112245000D01*
X160410000Y-112200000D02*
X147000002Y-112200000D01*
X163000000Y-110410000D02*
X162200000Y-110410000D01*
X162200000Y-110410000D02*
X160410000Y-112200000D01*
X129100000Y-104000000D02*
X129100000Y-105400000D01*
X135945000Y-112245000D02*
X144200000Y-112245000D01*
%TO.N,/uController/SPI2_SCK*%
X123614000Y-99781000D02*
X124463000Y-100630000D01*
X126744000Y-100630000D02*
X127230000Y-100144000D01*
X127230000Y-97869998D02*
X130299998Y-94800000D01*
X127230000Y-100144000D02*
X127230000Y-97869998D01*
X130299998Y-94800000D02*
X131000000Y-94800000D01*
X124463000Y-100630000D02*
X126744000Y-100630000D01*
%TO.N,S5D*%
X162850000Y-95335000D02*
X162050000Y-95335000D01*
X162050000Y-95335000D02*
X161300000Y-94585000D01*
X161300000Y-94585000D02*
X161300000Y-93700000D01*
X126280000Y-99680400D02*
X126280000Y-96619700D01*
X137300000Y-93300000D02*
X141800000Y-97800000D01*
X129599700Y-93300000D02*
X137300000Y-93300000D01*
X126400000Y-99800000D02*
X126280000Y-99680400D01*
X126280000Y-96619700D02*
X129599700Y-93300000D01*
D28*
%TO.N,S4D*%
X131047000Y-108058000D02*
X133048000Y-110058000D01*
X129611000Y-109126000D02*
X129611000Y-108830000D01*
X148710000Y-102510000D02*
X150861000Y-102510000D01*
X129611000Y-108830000D02*
X130384000Y-108058000D01*
X136090000Y-113100000D02*
X145000000Y-113100000D01*
X159790000Y-95775200D02*
X159790000Y-94464100D01*
X161890000Y-97875000D02*
X159790000Y-95775200D01*
X147500000Y-110600000D02*
X148711000Y-110600000D01*
X145000000Y-113100000D02*
X147500000Y-110600000D01*
X130384000Y-108058000D02*
X131047000Y-108058000D01*
X162850000Y-97875000D02*
X161890000Y-97875000D01*
X150861000Y-102510000D02*
X157780000Y-95590500D01*
X157780000Y-95590500D02*
X157891000Y-95590500D01*
X133048000Y-110058000D02*
X136090000Y-113100000D01*
%TO.N,S1U*%
X130818000Y-108884000D02*
X135602000Y-113668000D01*
X162220000Y-111680000D02*
X163000000Y-111680000D01*
X160232000Y-113668000D02*
X162220000Y-111680000D01*
X135602000Y-113668000D02*
X160232000Y-113668000D01*
%TO.N,S4U*%
X156305000Y-91605000D02*
X156300000Y-91600000D01*
X160388000Y-95840000D02*
X160388000Y-95202400D01*
X140054000Y-98253600D02*
X138100000Y-96300000D01*
X140054000Y-101029000D02*
X140054000Y-98253600D01*
X161823000Y-97275000D02*
X160388000Y-95840000D01*
X163708000Y-97275000D02*
X161823000Y-97275000D01*
X156305000Y-93457000D02*
X156305000Y-91605000D01*
X160445000Y-92422500D02*
X160933798Y-91933798D01*
X160445000Y-94054200D02*
X160445000Y-92422500D01*
X160846000Y-94745000D02*
X160846000Y-94455000D01*
X162850000Y-99145000D02*
X163650000Y-99145000D01*
X163975000Y-98820000D02*
X163975000Y-97542100D01*
X160388000Y-95202400D02*
X160846000Y-94745000D01*
X163975000Y-97542100D02*
X163708000Y-97275000D01*
X163650000Y-99145000D02*
X163975000Y-98820000D01*
X138100000Y-96300000D02*
X137800000Y-96300000D01*
X160846000Y-94455000D02*
X160445000Y-94054200D01*
D24*
%TO.N,Net-(D7-A)*%
X114900000Y-103600000D02*
X113500000Y-103600000D01*
D28*
%TO.N,S2U*%
X143198000Y-104492000D02*
X142472000Y-103765000D01*
X129673000Y-97282700D02*
X130539000Y-97282700D01*
X127582000Y-100290000D02*
X127582000Y-99373700D01*
X126845000Y-103119000D02*
X126845000Y-101026000D01*
X126845000Y-101026000D02*
X127582000Y-100290000D01*
X126976000Y-103249000D02*
X126845000Y-103119000D01*
X142472000Y-103765000D02*
X141729000Y-103765000D01*
X139139000Y-101175000D02*
X139139000Y-99548200D01*
X163000000Y-109140000D02*
X161148000Y-109140000D01*
X161148000Y-109140000D02*
X159854000Y-110434000D01*
X139139000Y-99548200D02*
X136700000Y-97109200D01*
X141729000Y-103765000D02*
X139139000Y-101175000D01*
X127582000Y-99373700D02*
X129673000Y-97282700D01*
X136700000Y-97109200D02*
X136700000Y-95200000D01*
D24*
%TO.N,S3U*%
X125400000Y-99800000D02*
X125400000Y-97000000D01*
X125400000Y-97000000D02*
X129700000Y-92700000D01*
X146146488Y-100784088D02*
X146146488Y-102146476D01*
X129700000Y-92700000D02*
X138062400Y-92700000D01*
X138062400Y-92700000D02*
X146146488Y-100784088D01*
X149400000Y-106600000D02*
X147500000Y-104700000D01*
X163000000Y-106600000D02*
X149400000Y-106600000D01*
%TO.N,Net-(U3-PA8)*%
X116098000Y-99597500D02*
X116400000Y-99900000D01*
X116098000Y-99248700D02*
X116098000Y-99597500D01*
D28*
X116098000Y-99248700D02*
X116098000Y-99074300D01*
D24*
X116098000Y-99074300D02*
X116098000Y-99248700D01*
%TO.N,Net-(U3-PA9)*%
X115995000Y-101795000D02*
X116600000Y-102400000D01*
X115995000Y-101300000D02*
X115995000Y-101795000D01*
D28*
%TO.N,Net-(U3-PA10)*%
X117700000Y-105175000D02*
X117670000Y-105175000D01*
X117670000Y-105175000D02*
X116095000Y-103600000D01*
%TD*%
M02*
