%TF.GenerationSoftware,KiCad,Pcbnew,8.0.2*%
%TF.CreationDate,2024-05-22T10:06:01-07:00*%
%TF.ProjectId,USB_8769M,5553425f-3837-4363-994d-2e6b69636164,rev?*%
%TF.SameCoordinates,Original*%
%TF.FileFunction,Other,Comment*%
%FSLAX46Y46*%
G04 Gerber Fmt 4.6, Leading zero omitted, Abs format (unit mm)*
G04 Created by KiCad (PCBNEW 8.0.2) date 2024-05-22 10:06:01*
%MOMM*%
%LPD*%
G01*
G04 APERTURE LIST*
%ADD10C,0.070000*%
%ADD11C,0.150000*%
G04 APERTURE END LIST*
D10*
X100946407Y-109808095D02*
X100546407Y-109808095D01*
X100946407Y-109579524D02*
X100717836Y-109750953D01*
X100546407Y-109579524D02*
X100774979Y-109808095D01*
X100736883Y-109408095D02*
X100736883Y-109274762D01*
X100946407Y-109217619D02*
X100946407Y-109408095D01*
X100946407Y-109408095D02*
X100546407Y-109408095D01*
X100546407Y-109408095D02*
X100546407Y-109217619D01*
X100736883Y-109046190D02*
X100736883Y-108912857D01*
X100946407Y-108855714D02*
X100946407Y-109046190D01*
X100946407Y-109046190D02*
X100546407Y-109046190D01*
X100546407Y-109046190D02*
X100546407Y-108855714D01*
X100946407Y-108684285D02*
X100546407Y-108684285D01*
X100546407Y-108684285D02*
X100546407Y-108531904D01*
X100546407Y-108531904D02*
X100565455Y-108493809D01*
X100565455Y-108493809D02*
X100584502Y-108474762D01*
X100584502Y-108474762D02*
X100622598Y-108455714D01*
X100622598Y-108455714D02*
X100679740Y-108455714D01*
X100679740Y-108455714D02*
X100717836Y-108474762D01*
X100717836Y-108474762D02*
X100736883Y-108493809D01*
X100736883Y-108493809D02*
X100755931Y-108531904D01*
X100755931Y-108531904D02*
X100755931Y-108684285D01*
X100546407Y-108208095D02*
X100546407Y-108131904D01*
X100546407Y-108131904D02*
X100565455Y-108093809D01*
X100565455Y-108093809D02*
X100603550Y-108055714D01*
X100603550Y-108055714D02*
X100679740Y-108036666D01*
X100679740Y-108036666D02*
X100813074Y-108036666D01*
X100813074Y-108036666D02*
X100889264Y-108055714D01*
X100889264Y-108055714D02*
X100927360Y-108093809D01*
X100927360Y-108093809D02*
X100946407Y-108131904D01*
X100946407Y-108131904D02*
X100946407Y-108208095D01*
X100946407Y-108208095D02*
X100927360Y-108246190D01*
X100927360Y-108246190D02*
X100889264Y-108284285D01*
X100889264Y-108284285D02*
X100813074Y-108303333D01*
X100813074Y-108303333D02*
X100679740Y-108303333D01*
X100679740Y-108303333D02*
X100603550Y-108284285D01*
X100603550Y-108284285D02*
X100565455Y-108246190D01*
X100565455Y-108246190D02*
X100546407Y-108208095D01*
X100546407Y-107865237D02*
X100870217Y-107865237D01*
X100870217Y-107865237D02*
X100908312Y-107846190D01*
X100908312Y-107846190D02*
X100927360Y-107827142D01*
X100927360Y-107827142D02*
X100946407Y-107789047D01*
X100946407Y-107789047D02*
X100946407Y-107712856D01*
X100946407Y-107712856D02*
X100927360Y-107674761D01*
X100927360Y-107674761D02*
X100908312Y-107655714D01*
X100908312Y-107655714D02*
X100870217Y-107636666D01*
X100870217Y-107636666D02*
X100546407Y-107636666D01*
X100546407Y-107503332D02*
X100546407Y-107274761D01*
X100946407Y-107389047D02*
X100546407Y-107389047D01*
D11*
%TO.C,H1*%
X106300000Y-96200000D02*
G75*
G02*
X100700000Y-96200000I-2800000J0D01*
G01*
X100700000Y-96200000D02*
G75*
G02*
X106300000Y-96200000I2800000J0D01*
G01*
%TO.C,H2*%
X199100000Y-96200000D02*
G75*
G02*
X193500000Y-96200000I-2800000J0D01*
G01*
X193500000Y-96200000D02*
G75*
G02*
X199100000Y-96200000I2800000J0D01*
G01*
%TD*%
M02*
