%TF.GenerationSoftware,KiCad,Pcbnew,8.0.2*%
%TF.CreationDate,2024-05-20T13:08:33-07:00*%
%TF.ProjectId,USB_8769M,5553425f-3837-4363-994d-2e6b69636164,rev?*%
%TF.SameCoordinates,Original*%
%TF.FileFunction,Soldermask,Bot*%
%TF.FilePolarity,Negative*%
%FSLAX46Y46*%
G04 Gerber Fmt 4.6, Leading zero omitted, Abs format (unit mm)*
G04 Created by KiCad (PCBNEW 8.0.2) date 2024-05-20 13:08:33*
%MOMM*%
%LPD*%
G01*
G04 APERTURE LIST*
G04 Aperture macros list*
%AMRoundRect*
0 Rectangle with rounded corners*
0 $1 Rounding radius*
0 $2 $3 $4 $5 $6 $7 $8 $9 X,Y pos of 4 corners*
0 Add a 4 corners polygon primitive as box body*
4,1,4,$2,$3,$4,$5,$6,$7,$8,$9,$2,$3,0*
0 Add four circle primitives for the rounded corners*
1,1,$1+$1,$2,$3*
1,1,$1+$1,$4,$5*
1,1,$1+$1,$6,$7*
1,1,$1+$1,$8,$9*
0 Add four rect primitives between the rounded corners*
20,1,$1+$1,$2,$3,$4,$5,0*
20,1,$1+$1,$4,$5,$6,$7,0*
20,1,$1+$1,$6,$7,$8,$9,0*
20,1,$1+$1,$8,$9,$2,$3,0*%
G04 Aperture macros list end*
%ADD10C,3.600000*%
%ADD11C,5.600000*%
%ADD12C,2.374900*%
%ADD13C,0.990600*%
%ADD14RoundRect,0.250000X-0.600000X-0.600000X0.600000X-0.600000X0.600000X0.600000X-0.600000X0.600000X0*%
%ADD15C,1.700000*%
%ADD16O,0.900000X1.600000*%
%ADD17RoundRect,0.155000X0.212500X0.155000X-0.212500X0.155000X-0.212500X-0.155000X0.212500X-0.155000X0*%
%ADD18RoundRect,0.137500X-0.662500X-0.137500X0.662500X-0.137500X0.662500X0.137500X-0.662500X0.137500X0*%
%ADD19RoundRect,0.160000X0.197500X0.160000X-0.197500X0.160000X-0.197500X-0.160000X0.197500X-0.160000X0*%
%ADD20RoundRect,0.237500X0.300000X0.237500X-0.300000X0.237500X-0.300000X-0.237500X0.300000X-0.237500X0*%
%ADD21RoundRect,0.155000X-0.212500X-0.155000X0.212500X-0.155000X0.212500X0.155000X-0.212500X0.155000X0*%
%ADD22C,3.000000*%
%ADD23RoundRect,0.155000X-0.155000X0.212500X-0.155000X-0.212500X0.155000X-0.212500X0.155000X0.212500X0*%
G04 APERTURE END LIST*
D10*
%TO.C,H1*%
X103500000Y-96200000D03*
D11*
X103500000Y-96200000D03*
%TD*%
D10*
%TO.C,H2*%
X196300000Y-96200000D03*
D11*
X196300000Y-96200000D03*
%TD*%
D12*
%TO.C,J2*%
X103305000Y-104760000D03*
D13*
X100765000Y-104760000D03*
D12*
X98225000Y-104760000D03*
X103305000Y-110475000D03*
X98225000Y-110475000D03*
D13*
X101781000Y-112380000D03*
X99749000Y-112380000D03*
%TD*%
D14*
%TO.C,J3*%
X185860000Y-92060000D03*
D15*
X188400000Y-92060000D03*
X185860000Y-94600000D03*
X188400000Y-94600000D03*
X185860000Y-97140000D03*
X188400000Y-97140000D03*
X185860000Y-99680000D03*
X188400000Y-99680000D03*
X185860000Y-102220000D03*
X188400000Y-102220000D03*
X185860000Y-104760000D03*
X188400000Y-104760000D03*
X185860000Y-107300000D03*
X188400000Y-107300000D03*
%TD*%
D16*
%TO.C,J1*%
X112800000Y-86000000D03*
X106200000Y-86000000D03*
%TD*%
D17*
%TO.C,C10*%
X118467500Y-109000000D03*
X117332500Y-109000000D03*
%TD*%
D18*
%TO.C,U6*%
X162850000Y-99145000D03*
X162850000Y-97875000D03*
X162850000Y-96605000D03*
X162850000Y-95335000D03*
X162850000Y-94065000D03*
X162850000Y-92795000D03*
X162850000Y-91525000D03*
X162850000Y-90255000D03*
X169350000Y-90255000D03*
X169350000Y-91525000D03*
X169350000Y-92795000D03*
X169350000Y-94065000D03*
X169350000Y-95335000D03*
X169350000Y-96605000D03*
X169350000Y-97875000D03*
X169350000Y-99145000D03*
%TD*%
D19*
%TO.C,R10*%
X126897500Y-107800000D03*
X125702500Y-107800000D03*
%TD*%
%TO.C,R15*%
X115995000Y-101300000D03*
X114800000Y-101300000D03*
%TD*%
D20*
%TO.C,C20*%
X173800000Y-99200000D03*
X172075000Y-99200000D03*
%TD*%
D17*
%TO.C,C6*%
X125967500Y-90900000D03*
X124832500Y-90900000D03*
%TD*%
D18*
%TO.C,U5*%
X163000000Y-111680000D03*
X163000000Y-110410000D03*
X163000000Y-109140000D03*
X163000000Y-107870000D03*
X163000000Y-106600000D03*
X163000000Y-105330000D03*
X163000000Y-104060000D03*
X163000000Y-102790000D03*
X169500000Y-102790000D03*
X169500000Y-104060000D03*
X169500000Y-105330000D03*
X169500000Y-106600000D03*
X169500000Y-107870000D03*
X169500000Y-109140000D03*
X169500000Y-110410000D03*
X169500000Y-111680000D03*
%TD*%
D21*
%TO.C,C17*%
X121665000Y-100400000D03*
X122800000Y-100400000D03*
%TD*%
D22*
%TO.C,FID4*%
X201800000Y-111400000D03*
%TD*%
D19*
%TO.C,R14*%
X116097500Y-98900000D03*
X114902500Y-98900000D03*
%TD*%
D20*
%TO.C,C21*%
X173800000Y-101710000D03*
X172075000Y-101710000D03*
%TD*%
D23*
%TO.C,C13*%
X128500000Y-101765000D03*
X128500000Y-102900000D03*
%TD*%
D22*
%TO.C,FID3*%
X98000000Y-87500000D03*
%TD*%
D19*
%TO.C,R16*%
X116095000Y-103600000D03*
X114900000Y-103600000D03*
%TD*%
M02*
