%TF.GenerationSoftware,KiCad,Pcbnew,8.0.2*%
%TF.CreationDate,2024-05-20T13:08:33-07:00*%
%TF.ProjectId,USB_8769M,5553425f-3837-4363-994d-2e6b69636164,rev?*%
%TF.SameCoordinates,Original*%
%TF.FileFunction,Soldermask,Top*%
%TF.FilePolarity,Negative*%
%FSLAX46Y46*%
G04 Gerber Fmt 4.6, Leading zero omitted, Abs format (unit mm)*
G04 Created by KiCad (PCBNEW 8.0.2) date 2024-05-20 13:08:33*
%MOMM*%
%LPD*%
G01*
G04 APERTURE LIST*
G04 Aperture macros list*
%AMRoundRect*
0 Rectangle with rounded corners*
0 $1 Rounding radius*
0 $2 $3 $4 $5 $6 $7 $8 $9 X,Y pos of 4 corners*
0 Add a 4 corners polygon primitive as box body*
4,1,4,$2,$3,$4,$5,$6,$7,$8,$9,$2,$3,0*
0 Add four circle primitives for the rounded corners*
1,1,$1+$1,$2,$3*
1,1,$1+$1,$4,$5*
1,1,$1+$1,$6,$7*
1,1,$1+$1,$8,$9*
0 Add four rect primitives between the rounded corners*
20,1,$1+$1,$2,$3,$4,$5,0*
20,1,$1+$1,$4,$5,$6,$7,0*
20,1,$1+$1,$6,$7,$8,$9,0*
20,1,$1+$1,$8,$9,$2,$3,0*%
G04 Aperture macros list end*
%ADD10R,2.100000X1.800000*%
%ADD11RoundRect,0.250000X1.000000X0.650000X-1.000000X0.650000X-1.000000X-0.650000X1.000000X-0.650000X0*%
%ADD12RoundRect,0.160000X-0.197500X-0.160000X0.197500X-0.160000X0.197500X0.160000X-0.197500X0.160000X0*%
%ADD13RoundRect,0.155000X0.212500X0.155000X-0.212500X0.155000X-0.212500X-0.155000X0.212500X-0.155000X0*%
%ADD14RoundRect,0.160000X0.197500X0.160000X-0.197500X0.160000X-0.197500X-0.160000X0.197500X-0.160000X0*%
%ADD15RoundRect,0.155000X-0.155000X0.212500X-0.155000X-0.212500X0.155000X-0.212500X0.155000X0.212500X0*%
%ADD16RoundRect,0.237500X-0.300000X-0.237500X0.300000X-0.237500X0.300000X0.237500X-0.300000X0.237500X0*%
%ADD17RoundRect,0.160000X-0.160000X0.197500X-0.160000X-0.197500X0.160000X-0.197500X0.160000X0.197500X0*%
%ADD18C,3.600000*%
%ADD19C,5.600000*%
%ADD20RoundRect,0.155000X0.155000X-0.212500X0.155000X0.212500X-0.155000X0.212500X-0.155000X-0.212500X0*%
%ADD21C,2.374900*%
%ADD22C,0.990600*%
%ADD23C,0.787400*%
%ADD24RoundRect,0.250000X-0.600000X-0.600000X0.600000X-0.600000X0.600000X0.600000X-0.600000X0.600000X0*%
%ADD25C,1.700000*%
%ADD26RoundRect,0.150000X-0.512500X-0.150000X0.512500X-0.150000X0.512500X0.150000X-0.512500X0.150000X0*%
%ADD27RoundRect,0.150000X0.512500X0.150000X-0.512500X0.150000X-0.512500X-0.150000X0.512500X-0.150000X0*%
%ADD28RoundRect,0.237500X0.287500X0.237500X-0.287500X0.237500X-0.287500X-0.237500X0.287500X-0.237500X0*%
%ADD29C,3.000000*%
%ADD30RoundRect,0.160000X0.160000X-0.197500X0.160000X0.197500X-0.160000X0.197500X-0.160000X-0.197500X0*%
%ADD31RoundRect,0.237500X-0.237500X0.287500X-0.237500X-0.287500X0.237500X-0.287500X0.237500X0.287500X0*%
%ADD32RoundRect,0.155000X-0.212500X-0.155000X0.212500X-0.155000X0.212500X0.155000X-0.212500X0.155000X0*%
%ADD33R,1.100000X3.700000*%
%ADD34RoundRect,0.250000X-0.412500X-0.650000X0.412500X-0.650000X0.412500X0.650000X-0.412500X0.650000X0*%
%ADD35RoundRect,0.175000X0.175000X0.325000X-0.175000X0.325000X-0.175000X-0.325000X0.175000X-0.325000X0*%
%ADD36RoundRect,0.150000X0.200000X0.150000X-0.200000X0.150000X-0.200000X-0.150000X0.200000X-0.150000X0*%
%ADD37RoundRect,0.100000X0.100000X0.575000X-0.100000X0.575000X-0.100000X-0.575000X0.100000X-0.575000X0*%
%ADD38O,0.900000X1.600000*%
%ADD39RoundRect,0.250000X0.550000X0.450000X-0.550000X0.450000X-0.550000X-0.450000X0.550000X-0.450000X0*%
%ADD40RoundRect,0.250000X0.700000X0.700000X-0.700000X0.700000X-0.700000X-0.700000X0.700000X-0.700000X0*%
%ADD41RoundRect,0.237500X0.237500X-0.300000X0.237500X0.300000X-0.237500X0.300000X-0.237500X-0.300000X0*%
%ADD42RoundRect,0.075000X0.700000X0.075000X-0.700000X0.075000X-0.700000X-0.075000X0.700000X-0.075000X0*%
%ADD43RoundRect,0.075000X0.075000X0.700000X-0.075000X0.700000X-0.075000X-0.700000X0.075000X-0.700000X0*%
%ADD44RoundRect,0.237500X-0.237500X0.300000X-0.237500X-0.300000X0.237500X-0.300000X0.237500X0.300000X0*%
%ADD45R,1.250000X1.000000*%
G04 APERTURE END LIST*
D10*
%TO.C,Y1*%
X137000000Y-105700000D03*
X139900000Y-105700000D03*
X139900000Y-103400000D03*
X137000000Y-103400000D03*
%TD*%
D11*
%TO.C,D1*%
X165700000Y-100000000D03*
X161700000Y-100000000D03*
%TD*%
D12*
%TO.C,R4*%
X162705000Y-97400000D03*
X163900000Y-97400000D03*
%TD*%
D13*
%TO.C,C9*%
X130967500Y-111900000D03*
X129832500Y-111900000D03*
%TD*%
D14*
%TO.C,R2*%
X151397500Y-100200000D03*
X150202500Y-100200000D03*
%TD*%
D15*
%TO.C,C7*%
X133700000Y-109332500D03*
X133700000Y-110467500D03*
%TD*%
D16*
%TO.C,C14*%
X150937500Y-89000000D03*
X152662500Y-89000000D03*
%TD*%
D17*
%TO.C,R12*%
X123400000Y-95105000D03*
X123400000Y-96300000D03*
%TD*%
D18*
%TO.C,H1*%
X103500000Y-96200000D03*
D19*
X103500000Y-96200000D03*
%TD*%
D13*
%TO.C,C16*%
X139000000Y-101000000D03*
X137865000Y-101000000D03*
%TD*%
D20*
%TO.C,C12*%
X132400000Y-110435000D03*
X132400000Y-109300000D03*
%TD*%
D18*
%TO.C,H2*%
X196300000Y-96200000D03*
D19*
X196300000Y-96200000D03*
%TD*%
D21*
%TO.C,J2*%
X103305000Y-104760000D03*
D22*
X100765000Y-104760000D03*
D21*
X98225000Y-104760000D03*
X103305000Y-110475000D03*
X98225000Y-110475000D03*
D22*
X101781000Y-112380000D03*
X99749000Y-112380000D03*
D23*
X100130000Y-106030000D03*
X100130000Y-107300000D03*
X100130000Y-108570000D03*
X100130000Y-109840000D03*
X100130000Y-111110000D03*
X101400000Y-111110000D03*
X101400000Y-109840000D03*
X101400000Y-108570000D03*
X101400000Y-107300000D03*
X101400000Y-106030000D03*
%TD*%
D24*
%TO.C,J3*%
X185860000Y-92060000D03*
D25*
X188400000Y-92060000D03*
X185860000Y-94600000D03*
X188400000Y-94600000D03*
X185860000Y-97140000D03*
X188400000Y-97140000D03*
X185860000Y-99680000D03*
X188400000Y-99680000D03*
X185860000Y-102220000D03*
X188400000Y-102220000D03*
X185860000Y-104760000D03*
X188400000Y-104760000D03*
X185860000Y-107300000D03*
X188400000Y-107300000D03*
%TD*%
D26*
%TO.C,U4*%
X128725000Y-87000000D03*
X128725000Y-87950000D03*
X128725000Y-88900000D03*
X131000000Y-88900000D03*
X131000000Y-87950000D03*
X131000000Y-87000000D03*
%TD*%
D20*
%TO.C,C3*%
X165900000Y-103967500D03*
X165900000Y-102832500D03*
%TD*%
D26*
%TO.C,U2*%
X121025000Y-89000000D03*
X121025000Y-89950000D03*
X121025000Y-90900000D03*
X123300000Y-90900000D03*
X123300000Y-89000000D03*
%TD*%
D27*
%TO.C,U1*%
X158592500Y-100150000D03*
X158592500Y-99200000D03*
X158592500Y-98250000D03*
X156317500Y-98250000D03*
X156317500Y-100150000D03*
%TD*%
D28*
%TO.C,D6*%
X116200000Y-101100000D03*
X114450000Y-101100000D03*
%TD*%
D29*
%TO.C,FID2*%
X201800000Y-111400000D03*
%TD*%
D13*
%TO.C,C5*%
X125800000Y-86500000D03*
X124665000Y-86500000D03*
%TD*%
%TO.C,C18*%
X133867500Y-86900000D03*
X132732500Y-86900000D03*
%TD*%
D30*
%TO.C,R9*%
X147400000Y-90565000D03*
X147400000Y-89370000D03*
%TD*%
D31*
%TO.C,D4*%
X144000000Y-85725000D03*
X144000000Y-87475000D03*
%TD*%
D32*
%TO.C,C15*%
X137665000Y-108100000D03*
X138800000Y-108100000D03*
%TD*%
D12*
%TO.C,R5*%
X157405000Y-96600000D03*
X158600000Y-96600000D03*
%TD*%
D33*
%TO.C,L1*%
X156000000Y-104600000D03*
X159000000Y-104600000D03*
%TD*%
D12*
%TO.C,R6*%
X125005000Y-89000000D03*
X126200000Y-89000000D03*
%TD*%
D13*
%TO.C,C2*%
X163900000Y-95500000D03*
X162765000Y-95500000D03*
%TD*%
D12*
%TO.C,R1*%
X156900000Y-108900000D03*
X158095000Y-108900000D03*
%TD*%
D34*
%TO.C,C19*%
X173975000Y-107500000D03*
X177100000Y-107500000D03*
%TD*%
D35*
%TO.C,D2*%
X110800000Y-95350000D03*
D36*
X110800000Y-93650000D03*
X108800000Y-93650000D03*
X108800000Y-95550000D03*
%TD*%
D37*
%TO.C,J1*%
X110800000Y-88675000D03*
X110150000Y-88675000D03*
X109500000Y-88675000D03*
X108850000Y-88675000D03*
X108200000Y-88675000D03*
D38*
X112800000Y-86000000D03*
D39*
X112700000Y-88450000D03*
D40*
X110700000Y-86000000D03*
X108300000Y-86000000D03*
D39*
X106300000Y-88450000D03*
D38*
X106200000Y-86000000D03*
%TD*%
D41*
%TO.C,C1*%
X153700000Y-103000000D03*
X153700000Y-101275000D03*
%TD*%
D29*
%TO.C,FID1*%
X98000000Y-87500000D03*
%TD*%
D12*
%TO.C,R7*%
X116705000Y-91600000D03*
X117900000Y-91600000D03*
%TD*%
D20*
%TO.C,C8*%
X121700000Y-96300000D03*
X121700000Y-95165000D03*
%TD*%
D42*
%TO.C,U3*%
X130775000Y-107850000D03*
X130775000Y-107350000D03*
X130775000Y-106850000D03*
X130775000Y-106350000D03*
X130775000Y-105850000D03*
X130775000Y-105350000D03*
X130775000Y-104850000D03*
X130775000Y-104350000D03*
X130775000Y-103850000D03*
X130775000Y-103350000D03*
X130775000Y-102850000D03*
X130775000Y-102350000D03*
X130775000Y-101850000D03*
X130775000Y-101350000D03*
X130775000Y-100850000D03*
X130775000Y-100350000D03*
D43*
X128850000Y-98425000D03*
X128350000Y-98425000D03*
X127850000Y-98425000D03*
X127350000Y-98425000D03*
X126850000Y-98425000D03*
X126350000Y-98425000D03*
X125850000Y-98425000D03*
X125350000Y-98425000D03*
X124850000Y-98425000D03*
X124350000Y-98425000D03*
X123850000Y-98425000D03*
X123350000Y-98425000D03*
X122850000Y-98425000D03*
X122350000Y-98425000D03*
X121850000Y-98425000D03*
X121350000Y-98425000D03*
D42*
X119425000Y-100350000D03*
X119425000Y-100850000D03*
X119425000Y-101350000D03*
X119425000Y-101850000D03*
X119425000Y-102350000D03*
X119425000Y-102850000D03*
X119425000Y-103350000D03*
X119425000Y-103850000D03*
X119425000Y-104350000D03*
X119425000Y-104850000D03*
X119425000Y-105350000D03*
X119425000Y-105850000D03*
X119425000Y-106350000D03*
X119425000Y-106850000D03*
X119425000Y-107350000D03*
X119425000Y-107850000D03*
D43*
X121350000Y-109775000D03*
X121850000Y-109775000D03*
X122350000Y-109775000D03*
X122850000Y-109775000D03*
X123350000Y-109775000D03*
X123850000Y-109775000D03*
X124350000Y-109775000D03*
X124850000Y-109775000D03*
X125350000Y-109775000D03*
X125850000Y-109775000D03*
X126350000Y-109775000D03*
X126850000Y-109775000D03*
X127350000Y-109775000D03*
X127850000Y-109775000D03*
X128350000Y-109775000D03*
X128850000Y-109775000D03*
%TD*%
D30*
%TO.C,R13*%
X144000000Y-90595000D03*
X144000000Y-89400000D03*
%TD*%
D44*
%TO.C,C4*%
X118500000Y-86675000D03*
X118500000Y-88400000D03*
%TD*%
D14*
%TO.C,R11*%
X134297500Y-105100000D03*
X133102500Y-105100000D03*
%TD*%
D44*
%TO.C,FB1*%
X135300000Y-99175000D03*
X135300000Y-100900000D03*
%TD*%
D28*
%TO.C,D5*%
X116300000Y-98800000D03*
X114550000Y-98800000D03*
%TD*%
D31*
%TO.C,D3*%
X147400000Y-85725000D03*
X147400000Y-87475000D03*
%TD*%
D20*
%TO.C,C11*%
X127800000Y-96335000D03*
X127800000Y-95200000D03*
%TD*%
D17*
%TO.C,R3*%
X153100000Y-97902500D03*
X153100000Y-99097500D03*
%TD*%
D45*
%TO.C,SW2*%
X168725000Y-87100000D03*
X176475000Y-87100000D03*
%TD*%
D12*
%TO.C,R8*%
X151205000Y-87000000D03*
X152400000Y-87000000D03*
%TD*%
D45*
%TO.C,SW1*%
X154950000Y-87100000D03*
X162700000Y-87100000D03*
%TD*%
D28*
%TO.C,D7*%
X116400000Y-103600000D03*
X114650000Y-103600000D03*
%TD*%
M02*
