M48
; DRILL file {KiCad 8.0.2} date 2024-05-20T13:08:33-0700
; FORMAT={-:-/ absolute / inch / decimal}
; #@! TF.CreationDate,2024-05-20T13:08:33-07:00
; #@! TF.GenerationSoftware,Kicad,Pcbnew,8.0.2
; #@! TF.FileFunction,Plated,1,2,PTH
FMAT,2
INCH
; #@! TA.AperFunction,Plated,PTH,ViaDrill
T1C0.0157
; #@! TA.AperFunction,Plated,PTH,ComponentDrill
T2C0.0197
; #@! TA.AperFunction,Plated,PTH,ComponentDrill
T3C0.0394
; #@! TA.AperFunction,Plated,PTH,ComponentDrill
T4C0.1260
%
G90
G05
T1
X3.878Y-4.4252
X3.9109Y-4.2494
X4.0433Y-4.2244
X4.2873Y-3.7244
X4.3937Y-3.6163
X4.4646Y-3.9882
X4.4685Y-3.8937
X4.4685Y-4.0787
X4.5276Y-3.5276
X4.5472Y-4.3504
X4.577Y-3.4823
X4.5827Y-3.9331
X4.5906Y-4.0315
X4.5945Y-3.6654
X4.6235Y-4.3954
X4.6339Y-4.1407
X4.6378Y-3.8937
X4.6654Y-4.4488
X4.6772Y-3.7539
X4.7087Y-3.5394
X4.7089Y-4.2802
X4.7126Y-3.7953
X4.7268Y-4.4517
X4.7677Y-4.185
X4.7894Y-3.9276
X4.7913Y-3.7126
X4.8112Y-4.0109
X4.8268Y-4.1024
X4.8449Y-4.3942
X4.8452Y-3.9881
X4.8667Y-3.9284
X4.8873Y-3.8199
X4.9055Y-3.6142
X4.9098Y-4.3762
X4.9307Y-3.6886
X4.937Y-3.9291
X4.9764Y-3.9291
X4.9941Y-4.3937
X4.9991Y-4.0649
X4.9992Y-3.8153
X5.0Y-3.4055
X5.0039Y-3.7058
X5.0079Y-3.5039
X5.0236Y-4.0079
X5.0421Y-4.2615
X5.0525Y-3.9237
X5.0775Y-3.5365
X5.0827Y-4.0945
X5.0901Y-4.0321
X5.1028Y-4.2963
X5.1263Y-3.7782
X5.1393Y-3.83
X5.1503Y-4.2868
X5.1575Y-3.7323
X5.185Y-4.378
X5.222Y-4.0665
X5.248Y-3.5039
X5.2543Y-4.0975
X5.2913Y-3.5365
X5.2943Y-4.2559
X5.315Y-3.4213
X5.3189Y-4.0709
X5.3256Y-3.7425
X5.3268Y-3.8425
X5.3598Y-4.2563
X5.3819Y-3.748
X5.3858Y-3.9764
X5.3859Y-4.3122
X5.3917Y-3.4474
X5.4252Y-3.7913
X5.4252Y-4.3819
X5.4667Y-4.3228
X5.5139Y-3.9775
X5.5735Y-4.1139
X5.5787Y-3.9055
X5.5827Y-3.8504
X5.6242Y-3.5289
X5.6377Y-4.1139
X5.6772Y-4.4191
X5.7362Y-3.375
X5.7538Y-4.0215
X5.7874Y-4.4173
X5.7992Y-3.9724
X5.8071Y-4.122
X5.8386Y-3.9409
X5.8394Y-3.5076
X5.8431Y-4.1019
X5.8547Y-4.0358
X5.8548Y-4.3543
X5.9528Y-3.4646
X5.9856Y-3.555
X6.0984Y-4.0118
X6.1535Y-3.6063
X6.1537Y-3.6794
X6.2047Y-3.9055
X6.2162Y-3.7634
X6.2383Y-3.6853
X6.2874Y-3.9055
X6.2909Y-3.7191
X6.2935Y-4.3478
X6.336Y-3.6194
X6.3465Y-3.7638
X6.3504Y-3.689
X6.4173Y-3.4921
X6.4822Y-3.7918
X6.5251Y-4.1352
X6.5696Y-4.2323
X6.5984Y-3.8858
X6.6024Y-3.9528
X6.9085Y-4.003
T3
X7.3173Y-3.6244
X7.3173Y-3.7244
X7.3173Y-3.8244
X7.3173Y-3.9244
X7.3173Y-4.0244
X7.3173Y-4.1244
X7.3173Y-4.2244
X7.4173Y-3.6244
X7.4173Y-3.7244
X7.4173Y-3.8244
X7.4173Y-3.9244
X7.4173Y-4.0244
X7.4173Y-4.1244
X7.4173Y-4.2244
T4
X4.0748Y-3.7874
X7.7283Y-3.7874
T2
G00X4.1811Y-3.372
M15
G01X4.1811Y-3.3996
M16
G05
G00X4.4409Y-3.372
M15
G01X4.4409Y-3.3996
M16
G05
M30
